<svg width="120" height="120" viewBox="0 0 120 120" fill="none" xmlns="http://www.w3.org/2000/svg">
<rect width="120" height="120" rx="18" fill="#2E2E2E"/>
<path d="M19.1315 54.9844H16.5786V57.5373H19.1315V54.9844Z" fill="#00E7BF"/>
<path d="M22.5084 54.9844H19.9556V57.5373H22.5084V54.9844Z" fill="#00E7BF"/>
<path d="M25.8869 54.9844H23.334V57.5373H25.8869V54.9844Z" fill="#00E7BF"/>
<path d="M29.2653 54.9844H26.7124V57.5373H29.2653V54.9844Z" fill="#00E7BF"/>
<path d="M32.6437 54.9844H30.0908V57.5373H32.6437V54.9844Z" fill="#00E7BF"/>
<path d="M35.1842 54.9844H33.4678V57.5373H35.1842V54.9844Z" fill="#00E7BF"/>
<path d="M19.1315 58.375H16.5786V60.9279H19.1315V58.375Z" fill="#00E7BF"/>
<path d="M22.5084 58.375H19.9556V60.9279H22.5084V58.375Z" fill="#00E7BF"/>
<path d="M25.8869 58.375H23.334V60.9279H25.8869V58.375Z" fill="#00E7BF"/>
<path d="M29.2653 58.375H26.7124V60.9279H29.2653V58.375Z" fill="#00E7BF"/>
<path d="M32.6437 58.375H30.0908V60.9279H32.6437V58.375Z" fill="#00E7BF"/>
<path d="M35.1842 58.6749V58.377H33.4678V60.9298H36.0206V60.0189L35.4883 59.4493C35.2928 59.2398 35.1826 58.962 35.1826 58.6749H35.1842Z" fill="#00E7BF"/>
<path d="M36.8467 60.9004V60.9268H36.8731L36.8467 60.9004Z" fill="#00E7BF"/>
<path d="M22.5084 61.7656H19.9556V64.3185H22.5084V61.7656Z" fill="#00E7BF"/>
<path d="M25.8869 61.7656H23.334V64.3185H25.8869V61.7656Z" fill="#00E7BF"/>
<path d="M29.2653 61.7656H26.7124V64.3185H29.2653V61.7656Z" fill="#00E7BF"/>
<path d="M32.6437 61.7656H30.0908V64.3185H32.6437V61.7656Z" fill="#00E7BF"/>
<path d="M36.0206 61.7656H33.4678V64.3185H36.0206V61.7656Z" fill="#00E7BF"/>
<path d="M36.8467 61.7656V64.3201H39.3996V63.6357L37.6552 61.7656H36.8467Z" fill="#00E7BF"/>
<path d="M25.8869 65.1582H23.334V67.7111H25.8869V65.1582Z" fill="#00E7BF"/>
<path d="M29.2653 65.1582H26.7124V67.7111H29.2653V65.1582Z" fill="#00E7BF"/>
<path d="M32.6437 65.1582H30.0908V67.7111H32.6437V65.1582Z" fill="#00E7BF"/>
<path d="M36.0206 65.1582H33.4678V67.7111H36.0206V65.1582Z" fill="#00E7BF"/>
<path d="M39.3996 65.1582H36.8467V67.7111H39.3996V65.1582Z" fill="#00E7BF"/>
<path d="M40.8319 65.1582H40.2251V67.7111H42.778V65.4329H41.5721C41.299 65.4329 41.0367 65.3336 40.8319 65.1582Z" fill="#00E7BF"/>
<path d="M46.1564 65.4316H43.6035V67.7098H46.1564V65.4316Z" fill="#00E7BF"/>
<path d="M49.5333 65.4316H46.9805V67.7098H49.5333V65.4316Z" fill="#00E7BF"/>
<path d="M52.9118 65.4316H50.3589V67.7098H52.9118V65.4316Z" fill="#00E7BF"/>
<path d="M56.2902 65.4316H53.7373V67.7114H56.2902V65.4316Z" fill="#00E7BF"/>
<path d="M59.6686 65.4316H57.1157V67.7114H59.6686V65.4316Z" fill="#00E7BF"/>
<path d="M63.0456 65.4316H60.4927V67.7114H63.0456V65.4316Z" fill="#00E7BF"/>
<path d="M29.2653 68.5488H26.7124V71.1017H29.2653V68.5488Z" fill="#00E7BF"/>
<path d="M32.6437 68.5488H30.0908V71.1017H32.6437V68.5488Z" fill="#00E7BF"/>
<path d="M36.0206 68.5488H33.4678V71.1017H36.0206V68.5488Z" fill="#00E7BF"/>
<path d="M39.3996 68.5488H36.8467V71.1017H39.3996V68.5488Z" fill="#00E7BF"/>
<path d="M42.778 68.5488H40.2251V71.1017H42.778V68.5488Z" fill="#00E7BF"/>
<path d="M46.1564 68.5488H43.6035V71.1017H46.1564V68.5488Z" fill="#00E7BF"/>
<path d="M49.5333 68.5488H46.9805V71.1017H49.5333V68.5488Z" fill="#00E7BF"/>
<path d="M52.9118 68.5488H50.3589V71.1017H52.9118V68.5488Z" fill="#00E7BF"/>
<path d="M56.2902 68.5488H53.7373V71.1017H56.2902V68.5488Z" fill="#00E7BF"/>
<path d="M59.6686 68.5488H57.1157V71.1017H59.6686V68.5488Z" fill="#00E7BF"/>
<path d="M63.0456 68.5488H60.4927V71.1017H63.0456V68.5488Z" fill="#00E7BF"/>
<path d="M32.6437 71.9395H30.0908V74.4923H32.6437V71.9395Z" fill="#00E7BF"/>
<path d="M36.0206 71.9395H33.4678V74.4923H36.0206V71.9395Z" fill="#00E7BF"/>
<path d="M39.3996 71.9395H36.8467V74.4923H39.3996V71.9395Z" fill="#00E7BF"/>
<path d="M42.778 71.9395H40.2251V74.4923H42.778V71.9395Z" fill="#00E7BF"/>
<path d="M46.1564 71.9395H43.6035V74.4923H46.1564V71.9395Z" fill="#00E7BF"/>
<path d="M49.5333 71.9395H46.9805V74.4923H49.5333V71.9395Z" fill="#00E7BF"/>
<path d="M52.9118 71.9395H50.3589V74.4923H52.9118V71.9395Z" fill="#00E7BF"/>
<path d="M56.2902 71.9395H53.7373V74.4923H56.2902V71.9395Z" fill="#00E7BF"/>
<path d="M59.6686 71.9395H57.1157V74.4923H59.6686V71.9395Z" fill="#00E7BF"/>
<path d="M63.0456 71.9395H60.4927V74.4923H63.0456V71.9395Z" fill="#00E7BF"/>
<path d="M36.0206 75.332H33.4678V77.8849H36.0206V75.332Z" fill="#00E7BF"/>
<path d="M39.3996 75.332H36.8467V77.8849H39.3996V75.332Z" fill="#00E7BF"/>
<path d="M42.778 75.332H40.2251V77.8849H42.778V75.332Z" fill="#00E7BF"/>
<path d="M46.1564 75.332H43.6035V77.8849H46.1564V75.332Z" fill="#00E7BF"/>
<path d="M49.5333 75.332H46.9805V77.8849H49.5333V75.332Z" fill="#00E7BF"/>
<path d="M52.9118 75.332H50.3589V77.8849H52.9118V75.332Z" fill="#00E7BF"/>
<path d="M56.2902 75.332H53.7373V77.8849H56.2902V75.332Z" fill="#00E7BF"/>
<path d="M59.6686 75.332H57.1157V77.8849H59.6686V75.332Z" fill="#00E7BF"/>
<path d="M63.0456 75.332H60.4927V77.8849H63.0456V75.332Z" fill="#00E7BF"/>
<path d="M39.3996 78.7227H36.8467V81.2755H39.3996V78.7227Z" fill="#00E7BF"/>
<path d="M42.778 78.7227H40.2251V81.2755H42.778V78.7227Z" fill="#00E7BF"/>
<path d="M46.1564 78.7227H43.6035V81.2755H46.1564V78.7227Z" fill="#00E7BF"/>
<path d="M49.5333 78.7227H46.9805V81.2755H49.5333V78.7227Z" fill="#00E7BF"/>
<path d="M52.9118 78.7227H50.3589V81.2755H52.9118V78.7227Z" fill="#00E7BF"/>
<path d="M56.2902 78.7227H53.7373V81.2755H56.2902V78.7227Z" fill="#00E7BF"/>
<path d="M59.6686 78.7227H57.1157V81.2755H59.6686V78.7227Z" fill="#00E7BF"/>
<path d="M63.0456 78.7227H60.4927V81.2755H63.0456V78.7227Z" fill="#00E7BF"/>
<path d="M42.778 82.1133H40.2251V84.6662H42.778V82.1133Z" fill="#00E7BF"/>
<path d="M46.1564 82.1133H43.6035V84.6662H46.1564V82.1133Z" fill="#00E7BF"/>
<path d="M49.5333 82.1133H46.9805V84.6662H49.5333V82.1133Z" fill="#00E7BF"/>
<path d="M52.9118 82.1133H50.3589V84.6662H52.9118V82.1133Z" fill="#00E7BF"/>
<path d="M56.2902 82.1133H53.7373V84.6662H56.2902V82.1133Z" fill="#00E7BF"/>
<path d="M59.6686 82.1133H57.1157V84.6662H59.6686V82.1133Z" fill="#00E7BF"/>
<path d="M63.0456 82.1133H60.4927V84.6662H63.0456V82.1133Z" fill="#00E7BF"/>
<path d="M46.1564 85.5059H43.6035V88.0587H46.1564V85.5059Z" fill="#00E7BF"/>
<path d="M49.5333 85.5059H46.9805V88.0587H49.5333V85.5059Z" fill="#00E7BF"/>
<path d="M52.9118 85.5059H50.3589V88.0587H52.9118V85.5059Z" fill="#00E7BF"/>
<path d="M56.2902 85.5059H53.7373V88.0587H56.2902V85.5059Z" fill="#00E7BF"/>
<path d="M59.6686 85.5059H57.1157V88.0587H59.6686V85.5059Z" fill="#00E7BF"/>
<path d="M63.0456 85.5059H60.4927V88.0587H63.0456V85.5059Z" fill="#00E7BF"/>
<path d="M49.5333 88.8965H46.9805V91.4494H49.5333V88.8965Z" fill="#00E7BF"/>
<path d="M52.9118 88.8965H50.3589V91.4494H52.9118V88.8965Z" fill="#00E7BF"/>
<path d="M56.2902 88.8965H53.7373V91.4494H56.2902V88.8965Z" fill="#00E7BF"/>
<path d="M59.6686 88.8965H57.1157V91.4494H59.6686V88.8965Z" fill="#00E7BF"/>
<path d="M63.0456 88.8965H60.4927V91.4494H63.0456V88.8965Z" fill="#00E7BF"/>
<path d="M25.8869 21.25H23.334V23.8029H25.8869V21.25Z" fill="#00E7BF"/>
<path d="M29.2653 21.25H26.7124V23.8029H29.2653V21.25Z" fill="#00E7BF"/>
<path d="M32.6437 21.25H30.0908V23.8029H32.6437V21.25Z" fill="#00E7BF"/>
<path d="M36.0206 21.25H33.4678V23.8029H36.0206V21.25Z" fill="#00E7BF"/>
<path d="M39.3996 21.25H36.8467V23.8029H39.3996V21.25Z" fill="#00E7BF"/>
<path d="M42.778 21.25H40.2251V23.8029H42.778V21.25Z" fill="#00E7BF"/>
<path d="M46.1564 21.25H43.6035V23.8029H46.1564V21.25Z" fill="#00E7BF"/>
<path d="M49.5333 21.25H46.9805V23.8029H49.5333V21.25Z" fill="#00E7BF"/>
<path d="M52.9118 21.25H50.3589V23.8029H52.9118V21.25Z" fill="#00E7BF"/>
<path d="M22.5084 24.6426H19.9556V27.1955H22.5084V24.6426Z" fill="#00E7BF"/>
<path d="M25.8869 24.6426H23.334V27.1955H25.8869V24.6426Z" fill="#00E7BF"/>
<path d="M29.2653 24.6426H26.7124V27.1955H29.2653V24.6426Z" fill="#00E7BF"/>
<path d="M32.6437 24.6426H30.0908V27.1955H32.6437V24.6426Z" fill="#00E7BF"/>
<path d="M36.0206 24.6426H33.4678V27.1955H36.0206V24.6426Z" fill="#00E7BF"/>
<path d="M39.3996 24.6426H36.8467V27.1955H39.3996V24.6426Z" fill="#00E7BF"/>
<path d="M42.778 24.6426H40.2251V27.1955H42.778V24.6426Z" fill="#00E7BF"/>
<path d="M46.1564 24.6426H43.6035V27.1955H46.1564V24.6426Z" fill="#00E7BF"/>
<path d="M49.5333 24.6426H46.9805V27.1955H49.5333V24.6426Z" fill="#00E7BF"/>
<path d="M52.9118 24.6426H50.3589V27.1955H52.9118V24.6426Z" fill="#00E7BF"/>
<path d="M56.2902 24.6426H53.7373V27.1955H56.2902V24.6426Z" fill="#00E7BF"/>
<path d="M19.1315 28.0332H16.5786V30.5861H19.1315V28.0332Z" fill="#00E7BF"/>
<path d="M22.5084 28.0332H19.9556V30.5861H22.5084V28.0332Z" fill="#00E7BF"/>
<path d="M25.8869 28.0332H23.334V30.5861H25.8869V28.0332Z" fill="#00E7BF"/>
<path d="M29.2653 28.0332H26.7124V30.5861H29.2653V28.0332Z" fill="#00E7BF"/>
<path d="M32.6437 28.0332H30.0908V30.5861H32.6437V28.0332Z" fill="#00E7BF"/>
<path d="M36.0206 28.0332H33.4678V30.5861H36.0206V28.0332Z" fill="#00E7BF"/>
<path d="M39.3996 28.0332H36.8467V30.5861H39.3996V28.0332Z" fill="#00E7BF"/>
<path d="M42.778 28.0332H40.2251V30.5861H42.778V28.0332Z" fill="#00E7BF"/>
<path d="M46.1564 28.0332H43.6035V30.5861H46.1564V28.0332Z" fill="#00E7BF"/>
<path d="M49.5333 28.0332H46.9805V30.5861H49.5333V28.0332Z" fill="#00E7BF"/>
<path d="M52.9118 28.0332H50.3589V30.5861H52.9118V28.0332Z" fill="#00E7BF"/>
<path d="M56.2902 28.0332H53.7373V30.5861H56.2902V28.0332Z" fill="#00E7BF"/>
<path d="M59.6686 28.0332H57.1157V30.5861H59.6686V28.0332Z" fill="#00E7BF"/>
<path d="M63.0456 28.0332H60.4927V30.5861H63.0456V28.0332Z" fill="#00E7BF"/>
<path d="M15.7531 31.4238H13.2002V33.9767H15.7531V31.4238Z" fill="#00E7BF"/>
<path d="M19.1315 31.4238H16.5786V33.9767H19.1315V31.4238Z" fill="#00E7BF"/>
<path d="M22.5084 31.4238H19.9556V33.9767H22.5084V31.4238Z" fill="#00E7BF"/>
<path d="M25.8869 31.4238H23.334V33.9767H25.8869V31.4238Z" fill="#00E7BF"/>
<path d="M29.2653 31.4238H26.7124V33.9767H29.2653V31.4238Z" fill="#00E7BF"/>
<path d="M32.6437 31.4238H30.0908V33.9767H32.6437V31.4238Z" fill="#00E7BF"/>
<path d="M36.0206 31.4238H33.4678V33.9767H36.0206V31.4238Z" fill="#00E7BF"/>
<path d="M39.3996 31.4238H36.8467V33.9767H39.3996V31.4238Z" fill="#00E7BF"/>
<path d="M42.778 31.4238H40.2251V33.9767H42.778V31.4238Z" fill="#00E7BF"/>
<path d="M46.1564 31.4238H43.6035V33.9767H46.1564V31.4238Z" fill="#00E7BF"/>
<path d="M49.5333 31.4238H46.9805V33.9767H49.5333V31.4238Z" fill="#00E7BF"/>
<path d="M52.9118 31.4238H50.3589V33.9767H52.9118V31.4238Z" fill="#00E7BF"/>
<path d="M56.2902 31.4238H53.7373V33.9767H56.2902V31.4238Z" fill="#00E7BF"/>
<path d="M59.6686 31.4238H57.1157V33.9767H59.6686V31.4238Z" fill="#00E7BF"/>
<path d="M63.0456 31.4238H60.4927V33.9767H63.0456V31.4238Z" fill="#00E7BF"/>
<path d="M15.7531 34.8164H13.2002V37.3693H15.7531V34.8164Z" fill="#00E7BF"/>
<path d="M19.1315 34.8164H16.5786V37.3693H19.1315V34.8164Z" fill="#00E7BF"/>
<path d="M22.5084 34.8164H19.9556V37.3693H22.5084V34.8164Z" fill="#00E7BF"/>
<path d="M25.8869 34.8164H23.334V37.3693H25.8869V34.8164Z" fill="#00E7BF"/>
<path d="M29.2653 34.8164H26.7124V37.3693H29.2653V34.8164Z" fill="#00E7BF"/>
<path d="M32.6437 34.8164H30.0908V37.3693H32.6437V34.8164Z" fill="#00E7BF"/>
<path d="M36.0206 34.8164H33.4678V37.3693H36.0206V34.8164Z" fill="#00E7BF"/>
<path d="M39.3996 34.8164H36.8467V37.3693H39.3996V34.8164Z" fill="#00E7BF"/>
<path d="M42.778 34.8164H40.2251V37.3693H42.778V34.8164Z" fill="#00E7BF"/>
<path d="M46.1564 34.8164H43.6035V37.3693H46.1564V34.8164Z" fill="#00E7BF"/>
<path d="M49.5333 34.8164H46.9805V37.3693H49.5333V34.8164Z" fill="#00E7BF"/>
<path d="M52.9118 34.8164H50.3589V37.3693H52.9118V34.8164Z" fill="#00E7BF"/>
<path d="M56.2902 34.8164H53.7373V37.3693H56.2902V34.8164Z" fill="#00E7BF"/>
<path d="M59.6686 34.8164H57.1157V37.3693H59.6686V34.8164Z" fill="#00E7BF"/>
<path d="M63.0456 34.8164H60.4927V37.3693H63.0456V34.8164Z" fill="#00E7BF"/>
<path d="M15.7531 38.207H13.2002V40.7599H15.7531V38.207Z" fill="#00E7BF"/>
<path d="M19.1315 38.207H16.5786V40.7599H19.1315V38.207Z" fill="#00E7BF"/>
<path d="M22.5084 38.207H19.9556V40.7599H22.5084V38.207Z" fill="#00E7BF"/>
<path d="M25.8869 38.207H23.334V40.7599H25.8869V38.207Z" fill="#00E7BF"/>
<path d="M29.2653 38.207H26.7124V40.7599H29.2653V38.207Z" fill="#00E7BF"/>
<path d="M32.6437 38.207H30.0908V40.7599H32.6437V38.207Z" fill="#00E7BF"/>
<path d="M36.0206 38.207H33.4678V40.7599H36.0206V38.207Z" fill="#00E7BF"/>
<path d="M39.3996 38.207H36.8467V40.7599H39.3996V38.207Z" fill="#00E7BF"/>
<path d="M42.778 38.207H40.2251V40.7599H42.778V38.207Z" fill="#00E7BF"/>
<path d="M46.1564 38.207H43.6035V40.7599H46.1564V38.207Z" fill="#00E7BF"/>
<path d="M49.5333 38.207H46.9805V40.7599H49.5333V38.207Z" fill="#00E7BF"/>
<path d="M52.9118 38.207H50.3589V40.7599H52.9118V38.207Z" fill="#00E7BF"/>
<path d="M56.2902 38.207H53.7373V40.7599H56.2902V38.207Z" fill="#00E7BF"/>
<path d="M59.6686 38.207H57.1157V40.7599H59.6686V38.207Z" fill="#00E7BF"/>
<path d="M63.0456 38.207H60.4927V40.7599H63.0456V38.207Z" fill="#00E7BF"/>
<path d="M15.7531 41.5977H13.2002V44.1505H15.7531V41.5977Z" fill="#00E7BF"/>
<path d="M19.1315 41.5977H16.5786V44.1505H19.1315V41.5977Z" fill="#00E7BF"/>
<path d="M22.5084 41.5977H19.9556V44.1505H22.5084V41.5977Z" fill="#00E7BF"/>
<path d="M25.8869 41.5977H23.334V44.1505H25.8869V41.5977Z" fill="#00E7BF"/>
<path d="M29.2653 41.5977H26.7124V44.1505H29.2653V41.5977Z" fill="#00E7BF"/>
<path d="M32.6437 41.5977H30.0908V44.1505H32.6437V41.5977Z" fill="#00E7BF"/>
<path d="M36.0206 41.5977H33.4678V44.1505H36.0206V41.5977Z" fill="#00E7BF"/>
<path d="M39.3996 41.5977H36.8467V44.1505H39.3996V41.5977Z" fill="#00E7BF"/>
<path d="M40.2251 44.1505H40.8319C41.0367 43.9736 41.299 43.8758 41.5721 43.8758H42.778V41.5977H40.2251V44.1505Z" fill="#00E7BF"/>
<path d="M46.1564 41.5977H43.6035V43.8758H46.1564V41.5977Z" fill="#00E7BF"/>
<path d="M49.5333 41.5977H46.9805V43.8758H49.5333V41.5977Z" fill="#00E7BF"/>
<path d="M52.9118 41.5977H50.3589V43.8758H52.9118V41.5977Z" fill="#00E7BF"/>
<path d="M56.2902 41.5977H53.7373V43.8758H56.2902V41.5977Z" fill="#00E7BF"/>
<path d="M59.6686 41.5977H57.1157V43.8758H59.6686V41.5977Z" fill="#00E7BF"/>
<path d="M63.0456 41.5977H60.4927V43.8758H63.0456V41.5977Z" fill="#00E7BF"/>
<path d="M15.7531 44.9902H13.2002V47.5431H15.7531V44.9902Z" fill="#00E7BF"/>
<path d="M19.1315 44.9902H16.5786V47.5431H19.1315V44.9902Z" fill="#00E7BF"/>
<path d="M22.5084 44.9902H19.9556V47.5431H22.5084V44.9902Z" fill="#00E7BF"/>
<path d="M25.8869 44.9902H23.334V47.5431H25.8869V44.9902Z" fill="#00E7BF"/>
<path d="M29.2653 44.9902H26.7124V47.5431H29.2653V44.9902Z" fill="#00E7BF"/>
<path d="M32.6437 44.9902H30.0908V47.5431H32.6437V44.9902Z" fill="#00E7BF"/>
<path d="M36.0206 44.9902H33.4678V47.5431H36.0206V44.9902Z" fill="#00E7BF"/>
<path d="M36.8467 47.5447H37.6552L39.3996 45.6762V44.9902H36.8467V47.5447Z" fill="#00E7BF"/>
<path d="M15.7531 48.3809H13.2002V50.9337H15.7531V48.3809Z" fill="#00E7BF"/>
<path d="M19.1315 48.3809H16.5786V50.9337H19.1315V48.3809Z" fill="#00E7BF"/>
<path d="M22.5084 48.3809H19.9556V50.9337H22.5084V48.3809Z" fill="#00E7BF"/>
<path d="M25.8869 48.3809H23.334V50.9337H25.8869V48.3809Z" fill="#00E7BF"/>
<path d="M29.2653 48.3809H26.7124V50.9337H29.2653V48.3809Z" fill="#00E7BF"/>
<path d="M32.6437 48.3809H30.0908V50.9337H32.6437V48.3809Z" fill="#00E7BF"/>
<path d="M33.4678 50.9337H35.1842V50.6404V50.6358C35.1842 50.3487 35.2928 50.0709 35.4899 49.8614L36.0222 49.2918V48.3809H33.4693V50.9337H33.4678Z" fill="#00E7BF"/>
<path d="M36.8467 48.3809V48.4072L36.8731 48.3809H36.8467Z" fill="#00E7BF"/>
<path d="M19.1315 51.7734H16.5786V54.3263H19.1315V51.7734Z" fill="#00E7BF"/>
<path d="M15.7531 51.7734H13.2002V54.3263H15.7531V51.7734Z" fill="#00E7BF"/>
<path d="M22.5084 51.7734H19.9556V54.3263H22.5084V51.7734Z" fill="#00E7BF"/>
<path d="M25.8869 51.7734H23.334V54.3263H25.8869V51.7734Z" fill="#00E7BF"/>
<path d="M29.2653 51.7734H26.7124V54.3263H29.2653V51.7734Z" fill="#00E7BF"/>
<path d="M32.6437 51.7734H30.0908V54.3263H32.6437V51.7734Z" fill="#00E7BF"/>
<path d="M35.1842 51.7734H33.4678V54.3263H35.1842V51.7734Z" fill="#00E7BF"/>
<path d="M80.7622 56.1405H83.1971C83.2235 56.1405 83.2639 56.1576 83.3151 56.1886V54.9844H80.7622V56.1421V56.1405Z" fill="#00E7BF"/>
<path d="M84.1406 56.8917C84.3377 57.0794 84.5581 57.2967 84.7971 57.5373H86.6935V54.9844H84.1406V56.8917Z" fill="#00E7BF"/>
<path d="M90.0705 54.9844H87.5176V57.5373H90.0705V54.9844Z" fill="#00E7BF"/>
<path d="M93.4489 54.9844H90.896V57.5373H93.4489V54.9844Z" fill="#00E7BF"/>
<path d="M96.8273 54.9844H94.2744V57.5373H96.8273V54.9844Z" fill="#00E7BF"/>
<path d="M100.206 54.9844H97.6533V57.5373H100.206V54.9844Z" fill="#00E7BF"/>
<path d="M103.583 54.9844H101.03V57.5373H103.583V54.9844Z" fill="#00E7BF"/>
<path d="M86.6935 59.5188V58.375H85.6118C85.9563 58.735 86.321 59.1199 86.6935 59.5188Z" fill="#00E7BF"/>
<path d="M87.5176 60.4064C87.6774 60.5803 87.8388 60.7541 87.9971 60.9279H90.0705V58.375H87.5176V60.4064Z" fill="#00E7BF"/>
<path d="M93.4489 58.375H90.896V60.9279H93.4489V58.375Z" fill="#00E7BF"/>
<path d="M96.8273 58.375H94.2744V60.9279H96.8273V58.375Z" fill="#00E7BF"/>
<path d="M100.206 58.375H97.6533V60.9279H100.206V58.375Z" fill="#00E7BF"/>
<path d="M103.583 58.375H101.03V60.9279H103.583V58.375Z" fill="#00E7BF"/>
<path d="M90.0704 63.2089V61.7656H88.7637C89.2308 62.2793 89.6746 62.7697 90.0704 63.2089Z" fill="#00E7BF"/>
<path d="M90.896 64.1276C90.9565 64.1944 91.0124 64.258 91.0667 64.3185H93.4489V61.7656H90.896V64.1276Z" fill="#00E7BF"/>
<path d="M96.8273 61.7656H94.2744V64.3185H96.8273V61.7656Z" fill="#00E7BF"/>
<path d="M100.206 61.7656H97.6533V64.3185H100.206V61.7656Z" fill="#00E7BF"/>
<path d="M66.424 65.4316H63.8711V67.7114H66.424V65.4316Z" fill="#00E7BF"/>
<path d="M69.8029 65.4297H67.25V67.711H69.8029V65.4297Z" fill="#00E7BF"/>
<path d="M73.1813 65.4297H70.6284V67.711H73.1813V65.4297Z" fill="#00E7BF"/>
<path d="M76.5583 65.4297H74.0054V67.711H76.5583V65.4297Z" fill="#00E7BF"/>
<path d="M79.9367 65.4297H77.3838V67.711H79.9367V65.4297Z" fill="#00E7BF"/>
<path d="M83.3151 65.4277H80.7622V67.7106H83.3151V65.4277Z" fill="#00E7BF"/>
<path d="M86.6935 65.4277H84.1406V67.7106H86.6935V65.4277Z" fill="#00E7BF"/>
<path d="M90.0705 65.4277H87.5176V67.7106H90.0705V65.4277Z" fill="#00E7BF"/>
<path d="M90.9038 65.4282H90.896V67.7111H93.4489V65.1582H91.6378C91.4345 65.332 91.1738 65.4282 90.9038 65.4282Z" fill="#00E7BF"/>
<path d="M96.8273 65.1582H94.2744V67.7111H96.8273V65.1582Z" fill="#00E7BF"/>
<path d="M66.424 68.5488H63.8711V71.1017H66.424V68.5488Z" fill="#00E7BF"/>
<path d="M69.8029 68.5488H67.25V71.1017H69.8029V68.5488Z" fill="#00E7BF"/>
<path d="M73.1813 68.5488H70.6284V71.1017H73.1813V68.5488Z" fill="#00E7BF"/>
<path d="M76.5583 68.5488H74.0054V71.1017H76.5583V68.5488Z" fill="#00E7BF"/>
<path d="M79.9367 68.5488H77.3838V71.1017H79.9367V68.5488Z" fill="#00E7BF"/>
<path d="M83.3151 68.5488H80.7622V71.1017H83.3151V68.5488Z" fill="#00E7BF"/>
<path d="M86.6935 68.5488H84.1406V71.1017H86.6935V68.5488Z" fill="#00E7BF"/>
<path d="M90.0705 68.5488H87.5176V71.1017H90.0705V68.5488Z" fill="#00E7BF"/>
<path d="M93.4489 68.5488H90.896V71.1017H93.4489V68.5488Z" fill="#00E7BF"/>
<path d="M66.424 71.9395H63.8711V74.4923H66.424V71.9395Z" fill="#00E7BF"/>
<path d="M69.8029 71.9395H67.25V74.4923H69.8029V71.9395Z" fill="#00E7BF"/>
<path d="M73.1813 71.9395H70.6284V74.4923H73.1813V71.9395Z" fill="#00E7BF"/>
<path d="M76.5583 71.9395H74.0054V74.4923H76.5583V71.9395Z" fill="#00E7BF"/>
<path d="M79.9367 71.9395H77.3838V74.4923H79.9367V71.9395Z" fill="#00E7BF"/>
<path d="M83.3151 71.9395H80.7622V74.4923H83.3151V71.9395Z" fill="#00E7BF"/>
<path d="M86.6935 71.9395H84.1406V74.4923H86.6935V71.9395Z" fill="#00E7BF"/>
<path d="M90.0705 71.9395H87.5176V74.4923H90.0705V71.9395Z" fill="#00E7BF"/>
<path d="M66.424 75.332H63.8711V77.8849H66.424V75.332Z" fill="#00E7BF"/>
<path d="M69.8029 75.332H67.25V77.8849H69.8029V75.332Z" fill="#00E7BF"/>
<path d="M73.1813 75.332H70.6284V77.8849H73.1813V75.332Z" fill="#00E7BF"/>
<path d="M76.5583 75.332H74.0054V77.8849H76.5583V75.332Z" fill="#00E7BF"/>
<path d="M79.9367 75.332H77.3838V77.8849H79.9367V75.332Z" fill="#00E7BF"/>
<path d="M83.3151 75.332H80.7622V77.8849H83.3151V75.332Z" fill="#00E7BF"/>
<path d="M86.6935 75.332H84.1406V77.8849H86.6935V75.332Z" fill="#00E7BF"/>
<path d="M66.424 78.7227H63.8711V81.2755H66.424V78.7227Z" fill="#00E7BF"/>
<path d="M69.8029 78.7227H67.25V81.2755H69.8029V78.7227Z" fill="#00E7BF"/>
<path d="M73.1813 78.7227H70.6284V81.2755H73.1813V78.7227Z" fill="#00E7BF"/>
<path d="M76.5583 78.7227H74.0054V81.2755H76.5583V78.7227Z" fill="#00E7BF"/>
<path d="M79.9367 78.7227H77.3838V81.2755H79.9367V78.7227Z" fill="#00E7BF"/>
<path d="M83.3151 78.7227H80.7622V81.2755H83.3151V78.7227Z" fill="#00E7BF"/>
<path d="M66.424 82.1133H63.8711V84.6662H66.424V82.1133Z" fill="#00E7BF"/>
<path d="M69.8029 82.1133H67.25V84.6662H69.8029V82.1133Z" fill="#00E7BF"/>
<path d="M73.1813 82.1133H70.6284V84.6662H73.1813V82.1133Z" fill="#00E7BF"/>
<path d="M76.5583 82.1133H74.0054V84.6662H76.5583V82.1133Z" fill="#00E7BF"/>
<path d="M79.9367 82.1133H77.3838V84.6662H79.9367V82.1133Z" fill="#00E7BF"/>
<path d="M66.424 85.5059H63.8711V88.0587H66.424V85.5059Z" fill="#00E7BF"/>
<path d="M69.8029 85.5059H67.25V88.0587H69.8029V85.5059Z" fill="#00E7BF"/>
<path d="M73.1813 85.5059H70.6284V88.0587H73.1813V85.5059Z" fill="#00E7BF"/>
<path d="M76.5583 85.5059H74.0054V88.0587H76.5583V85.5059Z" fill="#00E7BF"/>
<path d="M66.424 88.8965H63.8711V91.4494H66.424V88.8965Z" fill="#00E7BF"/>
<path d="M69.8029 88.8965H67.25V91.4494H69.8029V88.8965Z" fill="#00E7BF"/>
<path d="M73.1813 88.8965H70.6284V91.4494H73.1813V88.8965Z" fill="#00E7BF"/>
<path d="M52.9118 92.5605H50.3589V95.1134H52.9118V92.5605Z" fill="#00E7BF"/>
<path d="M56.2902 92.5605H53.7373V95.1134H56.2902V92.5605Z" fill="#00E7BF"/>
<path d="M59.6686 92.5605H57.1157V95.1134H59.6686V92.5605Z" fill="#00E7BF"/>
<path d="M63.0456 92.5605H60.4927V95.1134H63.0456V92.5605Z" fill="#00E7BF"/>
<path d="M66.424 92.5605H63.8711V95.1134H66.424V92.5605Z" fill="#00E7BF"/>
<path d="M69.8029 92.5605H67.25V95.1134H69.8029V92.5605Z" fill="#00E7BF"/>
<path d="M56.2902 96.2246H53.7373V98.7775H56.2902V96.2246Z" fill="#00E7BF"/>
<path d="M59.6686 96.2246H57.1157V98.7775H59.6686V96.2246Z" fill="#00E7BF"/>
<path d="M63.0456 96.2246H60.4927V98.7775H63.0456V96.2246Z" fill="#00E7BF"/>
<path d="M66.424 96.2246H63.8711V98.7775H66.424V96.2246Z" fill="#00E7BF"/>
<path d="M59.6686 99.8867H57.1157V102.44H59.6686V99.8867Z" fill="#00E7BF"/>
<path d="M63.0456 99.8867H60.4927V102.44H63.0456V99.8867Z" fill="#00E7BF"/>
<path d="M69.8029 21.25H67.25V23.8029H69.8029V21.25Z" fill="#00E7BF"/>
<path d="M73.1813 21.25H70.6284V23.8029H73.1813V21.25Z" fill="#00E7BF"/>
<path d="M76.5583 21.25H74.0054V23.8029H76.5583V21.25Z" fill="#00E7BF"/>
<path d="M79.9367 21.25H77.3838V23.8029H79.9367V21.25Z" fill="#00E7BF"/>
<path d="M83.3151 21.25H80.7622V23.8029H83.3151V21.25Z" fill="#00E7BF"/>
<path d="M86.6935 21.25H84.1406V23.8029H86.6935V21.25Z" fill="#00E7BF"/>
<path d="M90.0705 21.25H87.5176V23.8029H90.0705V21.25Z" fill="#00E7BF"/>
<path d="M93.4489 21.25H90.896V23.8029H93.4489V21.25Z" fill="#00E7BF"/>
<path d="M96.8273 21.25H94.2744V23.8029H96.8273V21.25Z" fill="#00E7BF"/>
<path d="M32.6437 17.8496H30.0908V20.4025H32.6437V17.8496Z" fill="#00E7BF"/>
<path d="M36.0206 17.8496H33.4678V20.4025H36.0206V17.8496Z" fill="#00E7BF"/>
<path d="M39.3996 17.8496H36.8467V20.4025H39.3996V17.8496Z" fill="#00E7BF"/>
<path d="M42.778 17.8496H40.2251V20.4025H42.778V17.8496Z" fill="#00E7BF"/>
<path d="M46.1564 17.8496H43.6035V20.4025H46.1564V17.8496Z" fill="#00E7BF"/>
<path d="M76.5583 17.8496H74.0054V20.4025H76.5583V17.8496Z" fill="#00E7BF"/>
<path d="M79.9367 17.8496H77.3838V20.4025H79.9367V17.8496Z" fill="#00E7BF"/>
<path d="M83.3151 17.8496H80.7622V20.4025H83.3151V17.8496Z" fill="#00E7BF"/>
<path d="M86.6935 17.8496H84.1406V20.4025H86.6935V17.8496Z" fill="#00E7BF"/>
<path d="M90.0705 17.8496H87.5176V20.4025H90.0705V17.8496Z" fill="#00E7BF"/>
<path d="M66.424 24.6426H63.8711V27.1955H66.424V24.6426Z" fill="#00E7BF"/>
<path d="M69.8029 24.6426H67.25V27.1955H69.8029V24.6426Z" fill="#00E7BF"/>
<path d="M73.1813 24.6426H70.6284V27.1955H73.1813V24.6426Z" fill="#00E7BF"/>
<path d="M76.5583 24.6426H74.0054V27.1955H76.5583V24.6426Z" fill="#00E7BF"/>
<path d="M79.9367 24.6426H77.3838V27.1955H79.9367V24.6426Z" fill="#00E7BF"/>
<path d="M83.3151 24.6426H80.7622V27.1955H83.3151V24.6426Z" fill="#00E7BF"/>
<path d="M86.6935 24.6426H84.1406V27.1955H86.6935V24.6426Z" fill="#00E7BF"/>
<path d="M90.0705 24.6426H87.5176V27.1955H90.0705V24.6426Z" fill="#00E7BF"/>
<path d="M93.4489 24.6426H90.896V27.1955H93.4489V24.6426Z" fill="#00E7BF"/>
<path d="M96.8273 24.6426H94.2744V27.1955H96.8273V24.6426Z" fill="#00E7BF"/>
<path d="M100.206 24.6426H97.6533V27.1955H100.206V24.6426Z" fill="#00E7BF"/>
<path d="M66.424 28.0332H63.8711V30.5861H66.424V28.0332Z" fill="#00E7BF"/>
<path d="M69.8029 28.0332H67.25V30.5861H69.8029V28.0332Z" fill="#00E7BF"/>
<path d="M73.1813 28.0332H70.6284V30.5861H73.1813V28.0332Z" fill="#00E7BF"/>
<path d="M76.5583 28.0332H74.0054V30.5861H76.5583V28.0332Z" fill="#00E7BF"/>
<path d="M79.9367 28.0332H77.3838V30.5861H79.9367V28.0332Z" fill="#00E7BF"/>
<path d="M83.3151 28.0332H80.7622V30.5861H83.3151V28.0332Z" fill="#00E7BF"/>
<path d="M86.6935 28.0332H84.1406V30.5861H86.6935V28.0332Z" fill="#00E7BF"/>
<path d="M90.0705 28.0332H87.5176V30.5861H90.0705V28.0332Z" fill="#00E7BF"/>
<path d="M93.4489 28.0332H90.896V30.5861H93.4489V28.0332Z" fill="#00E7BF"/>
<path d="M96.8273 28.0332H94.2744V30.5861H96.8273V28.0332Z" fill="#00E7BF"/>
<path d="M100.206 28.0332H97.6533V30.5861H100.206V28.0332Z" fill="#00E7BF"/>
<path d="M103.583 28.0332H101.03V30.5861H103.583V28.0332Z" fill="#00E7BF"/>
<path d="M66.424 31.4238H63.8711V33.9767H66.424V31.4238Z" fill="#00E7BF"/>
<path d="M69.8029 31.4238H67.25V33.9767H69.8029V31.4238Z" fill="#00E7BF"/>
<path d="M73.1813 31.4238H70.6284V33.9767H73.1813V31.4238Z" fill="#00E7BF"/>
<path d="M76.5583 31.4238H74.0054V33.9767H76.5583V31.4238Z" fill="#00E7BF"/>
<path d="M79.9367 31.4238H77.3838V33.9767H79.9367V31.4238Z" fill="#00E7BF"/>
<path d="M83.3151 31.4238H80.7622V33.9767H83.3151V31.4238Z" fill="#00E7BF"/>
<path d="M86.6935 31.4238H84.1406V33.9767H86.6935V31.4238Z" fill="#00E7BF"/>
<path d="M90.0705 31.4238H87.5176V33.9767H90.0705V31.4238Z" fill="#00E7BF"/>
<path d="M93.4489 31.4238H90.896V33.9767H93.4489V31.4238Z" fill="#00E7BF"/>
<path d="M96.8273 31.4238H94.2744V33.9767H96.8273V31.4238Z" fill="#00E7BF"/>
<path d="M100.206 31.4238H97.6533V33.9767H100.206V31.4238Z" fill="#00E7BF"/>
<path d="M103.583 31.4238H101.03V33.9767H103.583V31.4238Z" fill="#00E7BF"/>
<path d="M106.962 31.4238H104.409V33.9767H106.962V31.4238Z" fill="#00E7BF"/>
<path d="M66.424 34.8164H63.8711V37.3693H66.424V34.8164Z" fill="#00E7BF"/>
<path d="M69.8029 34.8164H67.25V37.3693H69.8029V34.8164Z" fill="#00E7BF"/>
<path d="M73.1813 34.8164H70.6284V37.3693H73.1813V34.8164Z" fill="#00E7BF"/>
<path d="M76.5583 34.8164H74.0054V37.3693H76.5583V34.8164Z" fill="#00E7BF"/>
<path d="M79.9367 34.8164H77.3838V37.3693H79.9367V34.8164Z" fill="#00E7BF"/>
<path d="M83.3151 34.8164H80.7622V37.3693H83.3151V34.8164Z" fill="#00E7BF"/>
<path d="M86.6935 34.8164H84.1406V37.3693H86.6935V34.8164Z" fill="#00E7BF"/>
<path d="M90.0705 34.8164H87.5176V37.3693H90.0705V34.8164Z" fill="#00E7BF"/>
<path d="M93.4489 34.8164H90.896V37.3693H93.4489V34.8164Z" fill="#00E7BF"/>
<path d="M96.8273 34.8164H94.2744V37.3693H96.8273V34.8164Z" fill="#00E7BF"/>
<path d="M100.206 34.8164H97.6533V37.3693H100.206V34.8164Z" fill="#00E7BF"/>
<path d="M103.583 34.8164H101.03V37.3693H103.583V34.8164Z" fill="#00E7BF"/>
<path d="M106.962 34.8164H104.409V37.3693H106.962V34.8164Z" fill="#00E7BF"/>
<path d="M66.424 38.207H63.8711V40.7599H66.424V38.207Z" fill="#00E7BF"/>
<path d="M69.8029 38.207H67.25V40.7599H69.8029V38.207Z" fill="#00E7BF"/>
<path d="M73.1813 38.207H70.6284V40.7599H73.1813V38.207Z" fill="#00E7BF"/>
<path d="M76.5583 38.207H74.0054V40.7599H76.5583V38.207Z" fill="#00E7BF"/>
<path d="M79.9367 38.207H77.3838V40.7599H79.9367V38.207Z" fill="#00E7BF"/>
<path d="M83.3151 38.207H80.7622V40.7599H83.3151V38.207Z" fill="#00E7BF"/>
<path d="M86.6935 38.207H84.1406V40.7599H86.6935V38.207Z" fill="#00E7BF"/>
<path d="M90.0705 38.207H87.5176V40.7599H90.0705V38.207Z" fill="#00E7BF"/>
<path d="M93.4489 38.207H90.896V40.7599H93.4489V38.207Z" fill="#00E7BF"/>
<path d="M96.8273 38.207H94.2744V40.7599H96.8273V38.207Z" fill="#00E7BF"/>
<path d="M100.206 38.207H97.6533V40.7599H100.206V38.207Z" fill="#00E7BF"/>
<path d="M103.583 38.207H101.03V40.7599H103.583V38.207Z" fill="#00E7BF"/>
<path d="M106.962 38.207H104.409V40.7599H106.962V38.207Z" fill="#00E7BF"/>
<path d="M66.424 41.5977H63.8711V43.8758H66.424V41.5977Z" fill="#00E7BF"/>
<path d="M69.8029 41.5977H67.25V43.8758H69.8029V41.5977Z" fill="#00E7BF"/>
<path d="M73.1813 41.5977H70.6284V43.8758H73.1813V41.5977Z" fill="#00E7BF"/>
<path d="M74.0054 43.8794C74.2599 43.8918 74.502 43.9864 74.6944 44.1525H76.5598V41.5996H74.0069V43.8809L74.0054 43.8794Z" fill="#00E7BF"/>
<path d="M79.9367 41.5977H77.3838V44.1505H79.9367V41.5977Z" fill="#00E7BF"/>
<path d="M83.3151 41.5977H80.7622V44.1505H83.3151V41.5977Z" fill="#00E7BF"/>
<path d="M86.6935 41.5977H84.1406V44.1505H86.6935V41.5977Z" fill="#00E7BF"/>
<path d="M90.0705 41.5977H87.5176V44.1505H90.0705V41.5977Z" fill="#00E7BF"/>
<path d="M93.4489 41.5977H90.896V44.1505H93.4489V41.5977Z" fill="#00E7BF"/>
<path d="M96.8273 41.5977H94.2744V44.1505H96.8273V41.5977Z" fill="#00E7BF"/>
<path d="M100.206 41.5977H97.6533V44.1505H100.206V41.5977Z" fill="#00E7BF"/>
<path d="M103.583 41.5977H101.03V44.1505H103.583V41.5977Z" fill="#00E7BF"/>
<path d="M106.962 41.5977H104.409V44.1505H106.962V41.5977Z" fill="#00E7BF"/>
<path d="M76.5593 46.1402V44.9902H75.4854L76.5593 46.1402Z" fill="#00E7BF"/>
<path d="M77.3838 47.0232L77.8711 47.5447H79.9367V44.9902H77.3838V47.0232Z" fill="#00E7BF"/>
<path d="M83.3151 44.9902H80.7622V47.5431H83.3151V44.9902Z" fill="#00E7BF"/>
<path d="M86.6935 44.9902H84.1406V47.5431H86.6935V44.9902Z" fill="#00E7BF"/>
<path d="M90.0705 44.9902H87.5176V47.5431H90.0705V44.9902Z" fill="#00E7BF"/>
<path d="M93.4489 44.9902H90.896V47.5431H93.4489V44.9902Z" fill="#00E7BF"/>
<path d="M96.8273 44.9902H94.2744V47.5431H96.8273V44.9902Z" fill="#00E7BF"/>
<path d="M100.206 44.9902H97.6533V47.5431H100.206V44.9902Z" fill="#00E7BF"/>
<path d="M103.583 44.9902H101.03V47.5431H103.583V44.9902Z" fill="#00E7BF"/>
<path d="M106.962 44.9902H104.409V47.5431H106.962V44.9902Z" fill="#00E7BF"/>
<path d="M79.9367 49.7558V48.3809H78.6533L79.9367 49.7558Z" fill="#00E7BF"/>
<path d="M83.3151 48.3809H80.7622V50.9337H83.3151V48.3809Z" fill="#00E7BF"/>
<path d="M86.6935 48.3809H84.1406V50.9337H86.6935V48.3809Z" fill="#00E7BF"/>
<path d="M90.0705 48.3809H87.5176V50.9337H90.0705V48.3809Z" fill="#00E7BF"/>
<path d="M93.4489 48.3809H90.896V50.9337H93.4489V48.3809Z" fill="#00E7BF"/>
<path d="M96.8273 48.3809H94.2744V50.9337H96.8273V48.3809Z" fill="#00E7BF"/>
<path d="M100.206 48.3809H97.6533V50.9337H100.206V48.3809Z" fill="#00E7BF"/>
<path d="M103.583 48.3809H101.03V50.9337H103.583V48.3809Z" fill="#00E7BF"/>
<path d="M106.962 48.3809H104.409V50.9337H106.962V48.3809Z" fill="#00E7BF"/>
<path d="M83.3151 51.7734H80.7622V54.3263H83.3151V51.7734Z" fill="#00E7BF"/>
<path d="M86.6935 51.7734H84.1406V54.3263H86.6935V51.7734Z" fill="#00E7BF"/>
<path d="M90.0705 51.7734H87.5176V54.3263H90.0705V51.7734Z" fill="#00E7BF"/>
<path d="M93.4489 51.7734H90.896V54.3263H93.4489V51.7734Z" fill="#00E7BF"/>
<path d="M96.8273 51.7734H94.2744V54.3263H96.8273V51.7734Z" fill="#00E7BF"/>
<path d="M100.206 51.7734H97.6533V54.3263H100.206V51.7734Z" fill="#00E7BF"/>
<path d="M103.583 51.7734H101.03V54.3263H103.583V51.7734Z" fill="#00E7BF"/>
<path d="M106.962 51.7734H104.409V54.3263H106.962V51.7734Z" fill="#00E7BF"/>
<path d="M71.0532 55.0074V54.3261C71.0532 54.025 70.9337 53.7364 70.7211 53.5238L70.6978 53.502C70.4852 53.2894 70.1966 53.1699 69.8955 53.1699H45.6051C45.2901 53.1699 44.9906 53.3003 44.7764 53.53C44.5793 53.7395 44.4707 54.0173 44.4707 54.3044V55.0089C44.4707 55.296 44.5793 55.5723 44.7764 55.7833C44.9906 56.013 45.2917 56.1434 45.6051 56.1434H69.9188C70.5458 56.1434 71.0532 55.6359 71.0532 55.0089V55.0074Z" fill="#00E7BF"/>
</svg>
