<svg width="107" height="117" viewBox="0 0 107 117" fill="none" xmlns="http://www.w3.org/2000/svg">
<path d="M56.1422 41.0067H32.6701V62.6621H56.1422V41.0067Z" fill="#202126"/>
<path fill-rule="evenodd" clip-rule="evenodd" d="M6.199 0.0046015C6.0452 0.0577015 6.0534 0.576701 6.0714 1.7206C6.0789 2.1957 6.0881 2.7786 6.0881 3.4806C6.0881 15.6765 15.9437 18.1571 15.9437 18.1571C15.9437 18.1571 6.0881 17.183 6.0881 19.8107C6.0881 22.4385 14.7014 25.8053 14.7014 25.8053C14.7014 25.8053 0 28.1386 0 30.7664C0 31.5987 0.996502 31.7694 2.7927 32.0772C5.0922 32.4711 8.7023 33.0896 13.2104 35.6081C6.9945 44.0062 3.3206 54.3875 3.3206 65.624C3.3206 93.578 26.0579 116.239 54.1057 116.239C64.204 116.239 73.614 113.301 81.523 108.236C80.912 107.394 80.686 106.247 81.118 105.102C83.475 98.845 84.45 94.282 84.197 90.312C83.946 86.393 82.485 82.864 79.582 78.698C77.985 76.406 76.389 74.645 74.863 73.073C74.461 72.659 74.054 72.249 73.65 71.841L73.648 71.839C72.552 70.734 71.47 69.642 70.522 68.514C69.183 66.9186 68.026 65.1575 67.216 62.8947C66.41 60.6424 65.978 57.9768 65.978 54.5979C65.978 45.4212 72.15 38.0613 79.655 34.9915C84.329 33.0798 89.627 32.7949 94.378 34.7838C85.093 22.7586 70.507 15.0094 54.1057 15.0094C53.538 15.0094 52.9725 15.0187 52.4093 15.0371C18.9102 14.527 9.5646 3.7087 7.0044 0.745C6.5661 0.2376 6.3267 -0.0394985 6.199 0.0046015ZM47.0262 57.8792C45.7104 57.4161 44.2946 57.1641 42.8198 57.1641C41.5195 57.1641 40.2652 57.36 39.0848 57.7237C38.19 57.9993 37.7426 58.1372 37.3991 58.0718C37.1007 58.0151 36.8202 57.8571 36.6174 57.6316C36.384 57.3721 36.3057 57.0566 36.1492 56.4257C35.911 55.4652 35.7821 54.4387 35.7821 53.3722C35.7821 47.9897 39.0656 43.6263 43.1161 43.6263C47.1666 43.6263 50.4502 47.9897 50.4502 53.3722C50.4502 54.5297 50.2983 55.64 50.0197 56.6699C49.8484 57.3029 49.7628 57.6194 49.5197 57.8757C49.309 58.0977 49.0192 58.2496 48.7162 58.2966C48.3665 58.3509 47.9197 58.1937 47.0262 57.8792Z" fill="url(#paint0_linear_13_2)"/>
<path d="M81.005 77.717C74.322 68.125 67.71 67.5293 67.71 54.5985C67.71 37.865 90.262 27.4089 100.899 42.2556C105.466 48.6301 107 58.4651 107 66.1575C107 83.335 98.288 98.497 84.988 107.583C83.719 108.449 82.199 107.141 82.739 105.708C87.516 93.026 87.036 86.373 81.005 77.717Z" fill="url(#paint1_radial_13_2)"/>
<defs>
<linearGradient id="paint0_linear_13_2" x1="105.146" y1="0.2178" x2="-15.1087" y2="163.414" gradientUnits="userSpaceOnUse">
<stop stop-color="#69E1B9"/>
<stop offset="1" stop-color="#818BEF"/>
</linearGradient>
<radialGradient id="paint1_radial_13_2" cx="0" cy="0" r="1" gradientUnits="userSpaceOnUse" gradientTransform="translate(73.854 83.917) rotate(-61.2194) scale(80.9896 66.6131)">
<stop stop-color="#D7821F"/>
<stop offset="1" stop-color="#BF36D6"/>
</radialGradient>
</defs>
</svg>
