<svg width="218" height="25" viewBox="0 0 218 25" fill="none" xmlns="http://www.w3.org/2000/svg">
<path d="M195.987 0.791643C195.752 0.539889 195.425 0.395264 195.077 0.395264H159.59C159.247 0.395264 158.915 0.539889 158.68 0.791643L152.921 6.95696C152.707 7.18728 152.589 7.4926 152.589 7.80328V16.604C152.589 16.92 152.707 17.22 152.921 17.4503L158.68 23.6156C158.915 23.8674 159.242 24.012 159.59 24.012H195.077C195.42 24.012 195.752 23.8674 195.987 23.6156L201.746 17.4503C201.96 17.22 202.078 16.9147 202.078 16.604V15.0774C202.078 14.3918 201.521 13.8347 200.835 13.8347H164.015C163.672 13.8347 163.34 13.6901 163.104 13.4383C162.89 13.208 162.772 12.9027 162.772 12.592V11.8153C162.772 11.4993 162.89 11.1993 163.104 10.969C163.34 10.7172 163.666 10.5726 164.015 10.5726H200.835C201.521 10.5726 202.078 10.0155 202.078 9.32988V7.80328C202.078 7.48725 201.96 7.18728 201.746 6.95696L195.987 0.791643Z" fill="#16E3C1"/>
<path d="M52.648 13.8829H49.5198V7.85149C49.5198 7.53546 49.402 7.23549 49.1877 7.00516L43.4295 0.834495C43.1938 0.582741 42.867 0.438116 42.5189 0.438116H7.03217C6.68936 0.438116 6.35726 0.582741 6.12157 0.834495L0.363352 6.99981C0.149093 7.23014 0.03125 7.53546 0.03125 7.84613V16.6522C0.03125 16.9682 0.149093 17.2682 0.363352 17.4985L6.12157 23.6638C6.35726 23.9156 6.684 24.0602 7.03217 24.0602H61.0952C61.438 24.0549 61.7701 23.9102 62.0058 23.6585C62.0058 23.6585 53.339 13.8775 52.6533 13.8775L52.648 13.8829ZM39.3425 12.6348C39.3425 13.3205 38.7854 13.8775 38.0998 13.8775H11.4513C11.1085 13.8775 10.7764 13.7329 10.5407 13.4812C10.3264 13.2508 10.2086 12.9455 10.2086 12.6348V11.8635C10.2086 11.5475 10.3264 11.2475 10.546 11.0172C10.7817 10.7654 11.1085 10.6208 11.4566 10.6208H38.0784C38.4105 10.6208 38.7265 10.7493 38.9568 10.985L38.9836 11.0118C39.2193 11.2475 39.3478 11.5635 39.3478 11.8903V12.6348H39.3425Z" fill="#16E3C1"/>
<path d="M101.831 6.46416L96.5337 0.791643C96.298 0.539889 95.9712 0.395264 95.6231 0.395264H80.7535C80.0678 0.395264 79.5108 0.952338 79.5108 1.63797V12.592C79.5108 12.9348 79.3661 13.2669 79.1144 13.5026C78.884 13.7168 78.5787 13.84 78.268 13.84H77.4914C77.1753 13.84 76.87 13.7222 76.645 13.5026C76.3933 13.2669 76.2486 12.9401 76.2486 12.592V1.63797C76.2486 0.952338 75.6916 0.395264 75.006 0.395264H60.1363C59.7935 0.395264 59.4614 0.539889 59.2257 0.791643L53.9282 6.46416C53.4836 6.94089 53.4836 7.68544 53.9282 8.16216L68.3532 23.621C68.5889 23.8727 68.9156 24.0174 69.2638 24.0174H86.4956C86.8384 24.0174 87.1705 23.8727 87.4062 23.621L101.831 8.16216C102.276 7.68544 102.276 6.94089 101.831 6.46416Z" fill="#16E3C1"/>
<path d="M134.243 0.791643C134.008 0.539889 133.681 0.395264 133.333 0.395264H116.101C115.758 0.395264 115.426 0.539889 115.19 0.791643L100.765 16.2505C100.321 16.7272 100.321 17.4717 100.765 17.9485L106.063 23.621C106.299 23.8727 106.625 24.0174 106.973 24.0174H121.843C122.529 24.0174 123.086 23.4603 123.086 22.7747V11.8206C123.086 11.4778 123.23 11.1457 123.482 10.91C123.712 10.6958 124.018 10.5726 124.328 10.5726H125.105C125.421 10.5726 125.726 10.6904 125.951 10.91C126.203 11.1457 126.348 11.4725 126.348 11.8206V22.7747C126.348 23.4603 126.905 24.0174 127.591 24.0174H142.46C142.803 24.0174 143.135 23.8727 143.371 23.621L148.668 17.9485C149.113 17.4717 149.113 16.7272 148.668 16.2505L134.243 0.791643Z" fill="#16E3C1"/>
<path d="M217.735 17.6485L215.635 14.0436C215.549 13.899 215.389 13.8079 215.217 13.8079H207.868C207.697 13.8079 207.536 13.899 207.45 14.0436L205.351 17.6485C205.302 17.7342 205.286 17.8306 205.297 17.9217C205.297 17.9217 205.308 17.9592 205.308 17.9752C205.324 18.0663 205.356 18.1574 205.431 18.227L211.2 23.8567C211.296 23.9477 211.42 23.9959 211.543 23.9906C211.666 23.9906 211.789 23.9477 211.886 23.8567L217.654 18.227C217.724 18.1574 217.756 18.0717 217.772 17.9806C217.772 17.9592 217.783 17.9431 217.783 17.9217C217.788 17.8306 217.783 17.7342 217.729 17.6485H217.735Z" fill="#16E3C1"/>
</svg>
