<svg width="120" height="120" viewBox="0 0 120 120" fill="none" xmlns="http://www.w3.org/2000/svg">
<rect width="120" height="120" rx="18" fill="#2E2E2E"/>
<path d="M37.2223 11.0996H34.6694V13.6525H37.2223V11.0996Z" fill="#00E7BF"/>
<path d="M40.6007 11.0996H38.0479V13.6525H40.6007V11.0996Z" fill="#00E7BF"/>
<path d="M43.9777 11.0996H41.4248V13.6525H43.9777V11.0996Z" fill="#00E7BF"/>
<path d="M57.4904 11.0996H54.9375V13.6525H57.4904V11.0996Z" fill="#00E7BF"/>
<path d="M60.8688 11.0996H58.3159V13.6525H60.8688V11.0996Z" fill="#00E7BF"/>
<path d="M37.2223 14.4902H34.6694V17.0431H37.2223V14.4902Z" fill="#00E7BF"/>
<path d="M40.6007 14.4902H38.0479V17.0431H40.6007V14.4902Z" fill="#00E7BF"/>
<path d="M43.9777 14.4902H41.4248V17.0431H43.9777V14.4902Z" fill="#00E7BF"/>
<path d="M57.4904 14.4902H54.9375V17.0431H57.4904V14.4902Z" fill="#00E7BF"/>
<path d="M60.8688 14.4902H58.3159V17.0431H60.8688V14.4902Z" fill="#00E7BF"/>
<path d="M37.2223 17.8828H34.6694V20.4357H37.2223V17.8828Z" fill="#00E7BF"/>
<path d="M40.6007 17.8828H38.0479V20.4357H40.6007V17.8828Z" fill="#00E7BF"/>
<path d="M43.9777 17.8828H41.4248V20.4357H43.9777V17.8828Z" fill="#00E7BF"/>
<path d="M57.4904 17.8828H54.9375V20.4357H57.4904V17.8828Z" fill="#00E7BF"/>
<path d="M60.8688 17.8828H58.3159V20.4357H60.8688V17.8828Z" fill="#00E7BF"/>
<path d="M64.2472 11.0996H61.6943V13.6525H64.2472V11.0996Z" fill="#00E7BF"/>
<path d="M77.7594 11.0996H75.2065V13.6525H77.7594V11.0996Z" fill="#00E7BF"/>
<path d="M81.1378 11.0996H78.585V13.6525H81.1378V11.0996Z" fill="#00E7BF"/>
<path d="M84.5148 11.0996H81.9619V13.6525H84.5148V11.0996Z" fill="#00E7BF"/>
<path d="M64.2472 14.4902H61.6943V17.0431H64.2472V14.4902Z" fill="#00E7BF"/>
<path d="M77.7594 14.4902H75.2065V17.0431H77.7594V14.4902Z" fill="#00E7BF"/>
<path d="M81.1378 14.4902H78.585V17.0431H81.1378V14.4902Z" fill="#00E7BF"/>
<path d="M84.5148 14.4902H81.9619V17.0431H84.5148V14.4902Z" fill="#00E7BF"/>
<path d="M64.2472 17.8828H61.6943V20.4357H64.2472V17.8828Z" fill="#00E7BF"/>
<path d="M77.7594 17.8828H75.2065V20.4357H77.7594V17.8828Z" fill="#00E7BF"/>
<path d="M81.1378 17.8828H78.585V20.4357H81.1378V17.8828Z" fill="#00E7BF"/>
<path d="M84.5148 17.8828H81.9619V20.4357H84.5148V17.8828Z" fill="#00E7BF"/>
<path d="M27.0885 21.3418H24.5356V23.8947H27.0885V21.3418Z" fill="#00E7BF"/>
<path d="M30.4655 21.3418H27.9126V23.8947H30.4655V21.3418Z" fill="#00E7BF"/>
<path d="M33.8439 21.3418H31.291V23.8947H33.8439V21.3418Z" fill="#00E7BF"/>
<path d="M37.2223 21.3418H34.6694V23.8947H37.2223V21.3418Z" fill="#00E7BF"/>
<path d="M40.6007 21.3418H38.0479V23.8947H40.6007V21.3418Z" fill="#00E7BF"/>
<path d="M43.9777 21.3418H41.4248V23.8947H43.9777V21.3418Z" fill="#00E7BF"/>
<path d="M47.3561 21.3418H44.8032V23.8947H47.3561V21.3418Z" fill="#00E7BF"/>
<path d="M50.7345 21.3418H48.1816V23.8947H50.7345V21.3418Z" fill="#00E7BF"/>
<path d="M54.1134 21.3418H51.5605V23.8947H54.1134V21.3418Z" fill="#00E7BF"/>
<path d="M57.4904 21.3418H54.9375V23.8947H57.4904V21.3418Z" fill="#00E7BF"/>
<path d="M60.8688 21.3418H58.3159V23.8947H60.8688V21.3418Z" fill="#00E7BF"/>
<path d="M27.0885 24.7324H24.5356V27.2853H27.0885V24.7324Z" fill="#00E7BF"/>
<path d="M30.4655 24.7324H27.9126V27.2853H30.4655V24.7324Z" fill="#00E7BF"/>
<path d="M33.8439 24.7324H31.291V27.2853H33.8439V24.7324Z" fill="#00E7BF"/>
<path d="M37.2223 24.7324H34.6694V27.2853H37.2223V24.7324Z" fill="#00E7BF"/>
<path d="M40.6007 24.7324H38.0479V27.2853H40.6007V24.7324Z" fill="#00E7BF"/>
<path d="M43.9777 24.7324H41.4248V27.2853H43.9777V24.7324Z" fill="#00E7BF"/>
<path d="M47.3561 24.7324H44.8032V27.2853H47.3561V24.7324Z" fill="#00E7BF"/>
<path d="M50.7345 24.7324H48.1816V27.2853H50.7345V24.7324Z" fill="#00E7BF"/>
<path d="M54.1134 24.7324H51.5605V27.2853H54.1134V24.7324Z" fill="#00E7BF"/>
<path d="M57.4904 24.7324H54.9375V27.2853H57.4904V24.7324Z" fill="#00E7BF"/>
<path d="M60.8688 24.7324H58.3159V27.2853H60.8688V24.7324Z" fill="#00E7BF"/>
<path d="M27.0885 28.125H24.5356V30.6779H27.0885V28.125Z" fill="#00E7BF"/>
<path d="M30.4655 28.125H27.9126V30.6779H30.4655V28.125Z" fill="#00E7BF"/>
<path d="M33.8439 28.125H31.291V30.6779H33.8439V28.125Z" fill="#00E7BF"/>
<path d="M37.2223 28.125H34.6694V30.6779H37.2223V28.125Z" fill="#00E7BF"/>
<path d="M40.6007 28.125H38.0479V30.6779H40.6007V28.125Z" fill="#00E7BF"/>
<path d="M43.9777 28.125H41.4248V30.6779H43.9777V28.125Z" fill="#00E7BF"/>
<path d="M47.3561 28.125H44.8032V30.6779H47.3561V28.125Z" fill="#00E7BF"/>
<path d="M50.7345 28.125H48.1816V30.6779H50.7345V28.125Z" fill="#00E7BF"/>
<path d="M54.1134 28.125H51.5605V30.6779H54.1134V28.125Z" fill="#00E7BF"/>
<path d="M57.4904 28.125H54.9375V30.6779H57.4904V28.125Z" fill="#00E7BF"/>
<path d="M60.8688 28.125H58.3159V30.6779H60.8688V28.125Z" fill="#00E7BF"/>
<path d="M64.2472 21.3418H61.6943V23.8947H64.2472V21.3418Z" fill="#00E7BF"/>
<path d="M67.6256 21.3418H65.0728V23.8947H67.6256V21.3418Z" fill="#00E7BF"/>
<path d="M71.0026 21.3418H68.4497V23.8947H71.0026V21.3418Z" fill="#00E7BF"/>
<path d="M74.381 21.3418H71.8281V23.8947H74.381V21.3418Z" fill="#00E7BF"/>
<path d="M77.7594 21.3418H75.2065V23.8947H77.7594V21.3418Z" fill="#00E7BF"/>
<path d="M81.1378 21.3418H78.585V23.8947H81.1378V21.3418Z" fill="#00E7BF"/>
<path d="M84.5148 21.3418H81.9619V23.8947H84.5148V21.3418Z" fill="#00E7BF"/>
<path d="M64.2472 24.7324H61.6943V27.2853H64.2472V24.7324Z" fill="#00E7BF"/>
<path d="M67.6256 24.7324H65.0728V27.2853H67.6256V24.7324Z" fill="#00E7BF"/>
<path d="M71.0026 24.7324H68.4497V27.2853H71.0026V24.7324Z" fill="#00E7BF"/>
<path d="M74.381 24.7324H71.8281V27.2853H74.381V24.7324Z" fill="#00E7BF"/>
<path d="M77.7594 24.7324H75.2065V27.2853H77.7594V24.7324Z" fill="#00E7BF"/>
<path d="M81.1378 24.7324H78.585V27.2853H81.1378V24.7324Z" fill="#00E7BF"/>
<path d="M84.5148 24.7324H81.9619V27.2853H84.5148V24.7324Z" fill="#00E7BF"/>
<path d="M64.2472 28.125H61.6943V30.6779H64.2472V28.125Z" fill="#00E7BF"/>
<path d="M67.6256 28.125H65.0728V30.6779H67.6256V28.125Z" fill="#00E7BF"/>
<path d="M71.0026 28.125H68.4497V30.6779H71.0026V28.125Z" fill="#00E7BF"/>
<path d="M74.381 28.125H71.8281V30.6779H74.381V28.125Z" fill="#00E7BF"/>
<path d="M77.7594 28.125H75.2065V30.6779H77.7594V28.125Z" fill="#00E7BF"/>
<path d="M81.1378 28.125H78.585V30.6779H81.1378V28.125Z" fill="#00E7BF"/>
<path d="M84.5148 28.125H81.9619V30.6779H84.5148V28.125Z" fill="#00E7BF"/>
<path d="M16.9528 31.584H14.3999V34.1369H16.9528V31.584Z" fill="#00E7BF"/>
<path d="M20.3312 31.584H17.7783V34.1369H20.3312V31.584Z" fill="#00E7BF"/>
<path d="M23.7101 31.584H21.1572V34.1369H23.7101V31.584Z" fill="#00E7BF"/>
<path d="M27.0885 31.584H24.5356V34.1369H27.0885V31.584Z" fill="#00E7BF"/>
<path d="M30.4655 31.584H27.9126V34.1369H30.4655V31.584Z" fill="#00E7BF"/>
<path d="M33.8439 31.584H31.291V34.1369H33.8439V31.584Z" fill="#00E7BF"/>
<path d="M37.2223 31.584H34.6694V34.1369H37.2223V31.584Z" fill="#00E7BF"/>
<path d="M40.6007 31.584H38.0479V34.1369H40.6007V31.584Z" fill="#00E7BF"/>
<path d="M43.9777 31.584H41.4248V34.1369H43.9777V31.584Z" fill="#00E7BF"/>
<path d="M47.3561 31.584H44.8032V34.1369H47.3561V31.584Z" fill="#00E7BF"/>
<path d="M50.7345 31.584H48.1816V34.1369H50.7345V31.584Z" fill="#00E7BF"/>
<path d="M54.1134 31.584H51.5605V34.1369H54.1134V31.584Z" fill="#00E7BF"/>
<path d="M57.4904 31.584H54.9375V34.1369H57.4904V31.584Z" fill="#00E7BF"/>
<path d="M60.8688 31.584H58.3159V34.1369H60.8688V31.584Z" fill="#00E7BF"/>
<path d="M16.9528 34.9766H14.3999V37.5294H16.9528V34.9766Z" fill="#00E7BF"/>
<path d="M20.3312 34.9766H17.7783V37.5294H20.3312V34.9766Z" fill="#00E7BF"/>
<path d="M23.7101 34.9766H21.1572V37.5294H23.7101V34.9766Z" fill="#00E7BF"/>
<path d="M27.0885 34.9766H24.5356V37.5294H27.0885V34.9766Z" fill="#00E7BF"/>
<path d="M30.4655 34.9766H27.9126V37.5294H30.4655V34.9766Z" fill="#00E7BF"/>
<path d="M33.8439 34.9766H31.291V37.5294H33.8439V34.9766Z" fill="#00E7BF"/>
<path d="M37.2223 34.9766H34.6694V37.5294H37.2223V34.9766Z" fill="#00E7BF"/>
<path d="M40.6007 34.9766H38.0479V37.5294H40.6007V34.9766Z" fill="#00E7BF"/>
<path d="M43.9777 34.9766H41.4248V37.5294H43.9777V34.9766Z" fill="#00E7BF"/>
<path d="M47.3561 34.9766H44.8032V37.5294H47.3561V34.9766Z" fill="#00E7BF"/>
<path d="M50.7345 34.9766H48.1816V37.5294H50.7345V34.9766Z" fill="#00E7BF"/>
<path d="M54.1134 34.9766H51.5605V37.5294H54.1134V34.9766Z" fill="#00E7BF"/>
<path d="M57.4904 34.9766H54.9375V37.5294H57.4904V34.9766Z" fill="#00E7BF"/>
<path d="M60.8688 34.9766H58.3159V37.5294H60.8688V34.9766Z" fill="#00E7BF"/>
<path d="M16.9528 38.3672H14.3999V40.9201H16.9528V38.3672Z" fill="#00E7BF"/>
<path d="M20.3312 38.3672H17.7783V40.9201H20.3312V38.3672Z" fill="#00E7BF"/>
<path d="M23.7101 38.3672H21.1572V40.9201H23.7101V38.3672Z" fill="#00E7BF"/>
<path d="M27.0885 38.3672H24.5356V40.9201H27.0885V38.3672Z" fill="#00E7BF"/>
<path d="M30.4655 38.3672H27.9126V40.9201H30.4655V38.3672Z" fill="#00E7BF"/>
<path d="M33.8439 38.3672H31.291V40.9201H33.8439V38.3672Z" fill="#00E7BF"/>
<path d="M37.2223 38.3672H34.6694V40.9201H37.2223V38.3672Z" fill="#00E7BF"/>
<path d="M40.6007 38.3672H38.0479V40.9201H40.6007V38.3672Z" fill="#00E7BF"/>
<path d="M43.9777 38.3672H41.4248V40.9201H43.9777V38.3672Z" fill="#00E7BF"/>
<path d="M47.3561 38.3672H44.8032V40.9201H47.3561V38.3672Z" fill="#00E7BF"/>
<path d="M50.7345 38.3672H48.1816V40.9201H50.7345V38.3672Z" fill="#00E7BF"/>
<path d="M54.1134 38.3672H51.5605V40.9201H54.1134V38.3672Z" fill="#00E7BF"/>
<path d="M57.4904 38.3672H54.9375V40.9201H57.4904V38.3672Z" fill="#00E7BF"/>
<path d="M60.8688 38.3672H58.3159V40.9201H60.8688V38.3672Z" fill="#00E7BF"/>
<path d="M64.2472 31.584H61.6943V34.1369H64.2472V31.584Z" fill="#00E7BF"/>
<path d="M67.6256 31.584H65.0728V34.1369H67.6256V31.584Z" fill="#00E7BF"/>
<path d="M71.0026 31.584H68.4497V34.1369H71.0026V31.584Z" fill="#00E7BF"/>
<path d="M74.381 31.584H71.8281V34.1369H74.381V31.584Z" fill="#00E7BF"/>
<path d="M77.7594 31.584H75.2065V34.1369H77.7594V31.584Z" fill="#00E7BF"/>
<path d="M81.1378 31.584H78.585V34.1369H81.1378V31.584Z" fill="#00E7BF"/>
<path d="M84.5148 31.584H81.9619V34.1369H84.5148V31.584Z" fill="#00E7BF"/>
<path d="M87.8937 31.584H85.3408V34.1369H87.8937V31.584Z" fill="#00E7BF"/>
<path d="M91.2721 31.584H88.7192V34.1369H91.2721V31.584Z" fill="#00E7BF"/>
<path d="M94.6491 31.584H92.0962V34.1369H94.6491V31.584Z" fill="#00E7BF"/>
<path d="M98.0275 31.584H95.4746V34.1369H98.0275V31.584Z" fill="#00E7BF"/>
<path d="M101.406 31.584H98.853V34.1369H101.406V31.584Z" fill="#00E7BF"/>
<path d="M104.784 31.584H102.231V34.1369H104.784V31.584Z" fill="#00E7BF"/>
<path d="M64.2472 34.9766H61.6943V37.5294H64.2472V34.9766Z" fill="#00E7BF"/>
<path d="M67.6256 34.9766H65.0728V37.5294H67.6256V34.9766Z" fill="#00E7BF"/>
<path d="M71.0026 34.9766H68.4497V37.5294H71.0026V34.9766Z" fill="#00E7BF"/>
<path d="M74.381 34.9766H71.8281V37.5294H74.381V34.9766Z" fill="#00E7BF"/>
<path d="M77.7594 34.9766H75.2065V37.5294H77.7594V34.9766Z" fill="#00E7BF"/>
<path d="M81.1378 34.9766H78.585V37.5294H81.1378V34.9766Z" fill="#00E7BF"/>
<path d="M84.5148 34.9766H81.9619V37.5294H84.5148V34.9766Z" fill="#00E7BF"/>
<path d="M87.8937 34.9766H85.3408V37.5294H87.8937V34.9766Z" fill="#00E7BF"/>
<path d="M91.2721 34.9766H88.7192V37.5294H91.2721V34.9766Z" fill="#00E7BF"/>
<path d="M94.6491 34.9766H92.0962V37.5294H94.6491V34.9766Z" fill="#00E7BF"/>
<path d="M98.0275 34.9766H95.4746V37.5294H98.0275V34.9766Z" fill="#00E7BF"/>
<path d="M101.406 34.9766H98.853V37.5294H101.406V34.9766Z" fill="#00E7BF"/>
<path d="M104.784 34.9766H102.231V37.5294H104.784V34.9766Z" fill="#00E7BF"/>
<path d="M64.2472 38.3672H61.6943V40.9201H64.2472V38.3672Z" fill="#00E7BF"/>
<path d="M67.6256 38.3672H65.0728V40.9201H67.6256V38.3672Z" fill="#00E7BF"/>
<path d="M71.0026 38.3672H68.4497V40.9201H71.0026V38.3672Z" fill="#00E7BF"/>
<path d="M74.381 38.3672H71.8281V40.9201H74.381V38.3672Z" fill="#00E7BF"/>
<path d="M77.7594 38.3672H75.2065V40.9201H77.7594V38.3672Z" fill="#00E7BF"/>
<path d="M81.1378 38.3672H78.585V40.9201H81.1378V38.3672Z" fill="#00E7BF"/>
<path d="M84.5148 38.3672H81.9619V40.9201H84.5148V38.3672Z" fill="#00E7BF"/>
<path d="M87.8937 38.3672H85.3408V40.9201H87.8937V38.3672Z" fill="#00E7BF"/>
<path d="M91.2721 38.3672H88.7192V40.9201H91.2721V38.3672Z" fill="#00E7BF"/>
<path d="M94.6491 38.3672H92.0962V40.9201H94.6491V38.3672Z" fill="#00E7BF"/>
<path d="M98.0275 38.3672H95.4746V40.9201H98.0275V38.3672Z" fill="#00E7BF"/>
<path d="M101.406 38.3672H98.853V40.9201H101.406V38.3672Z" fill="#00E7BF"/>
<path d="M104.784 38.3672H102.231V40.9201H104.784V38.3672Z" fill="#00E7BF"/>
<path d="M27.0885 41.8281H24.5356V44.381H27.0885V41.8281Z" fill="#00E7BF"/>
<path d="M30.4655 41.8281H27.9126V44.381H30.4655V41.8281Z" fill="#00E7BF"/>
<path d="M33.8439 41.8281H31.291V44.381H33.8439V41.8281Z" fill="#00E7BF"/>
<path d="M37.2223 41.8281H34.6694V44.381H37.2223V41.8281Z" fill="#00E7BF"/>
<path d="M38.0479 44.381H39.1016C39.3018 44.2227 39.5485 44.1327 39.8077 44.1327H40.6007V41.8281H38.0479V44.381Z" fill="#00E7BF"/>
<path d="M43.9777 41.8281H41.4248V44.1327H43.9777V41.8281Z" fill="#00E7BF"/>
<path d="M47.3561 41.8281H44.8032V44.1327H47.3561V41.8281Z" fill="#00E7BF"/>
<path d="M50.7345 41.8281H48.1816V44.1327H50.7345V41.8281Z" fill="#00E7BF"/>
<path d="M54.1134 41.8281H51.5605V44.1327H54.1134V41.8281Z" fill="#00E7BF"/>
<path d="M57.4904 41.8281H54.9375V44.1327H57.4904V41.8281Z" fill="#00E7BF"/>
<path d="M60.8688 41.8281H58.3159V44.1327H60.8688V41.8281Z" fill="#00E7BF"/>
<path d="M27.0885 45.2188H24.5356V47.7716H27.0885V45.2188Z" fill="#00E7BF"/>
<path d="M30.4655 45.2188H27.9126V47.7716H30.4655V45.2188Z" fill="#00E7BF"/>
<path d="M33.8439 45.2188H31.291V47.7716H33.8439V45.2188Z" fill="#00E7BF"/>
<path d="M34.6694 47.7716H35.9156L37.2223 46.3734V45.2188H34.6694V47.7716Z" fill="#00E7BF"/>
<path d="M38.0479 45.2188V45.4888L38.2993 45.2188H38.0479Z" fill="#00E7BF"/>
<path d="M27.0885 48.6113H24.5356V51.1642H27.0885V48.6113Z" fill="#00E7BF"/>
<path d="M30.4655 48.6113H27.9126V51.1642H30.4655V48.6113Z" fill="#00E7BF"/>
<path d="M31.291 51.1627H33.4187V50.8973V50.8926C33.4187 50.6055 33.5273 50.3277 33.7244 50.1182L33.8439 49.991V48.6113H31.291V51.1642V51.1627Z" fill="#00E7BF"/>
<path d="M34.6694 48.6113V49.1064L35.1335 48.6113H34.6694Z" fill="#00E7BF"/>
<path d="M64.2472 41.8281H61.6943V44.1327H64.2472V41.8281Z" fill="#00E7BF"/>
<path d="M67.6256 41.8281H65.0728V44.1327H67.6256V41.8281Z" fill="#00E7BF"/>
<path d="M71.0026 41.8281H68.4497V44.1327H71.0026V41.8281Z" fill="#00E7BF"/>
<path d="M71.8281 44.1327H72.1882C72.4458 44.1327 72.6941 44.2212 72.8943 44.381H74.381V41.8281H71.8281V44.1327Z" fill="#00E7BF"/>
<path d="M77.7594 41.8281H75.2065V44.381H77.7594V41.8281Z" fill="#00E7BF"/>
<path d="M81.1378 41.8281H78.585V44.381H81.1378V41.8281Z" fill="#00E7BF"/>
<path d="M84.5148 41.8281H81.9619V44.381H84.5148V41.8281Z" fill="#00E7BF"/>
<path d="M74.3808 45.9528V45.2188H73.6948L74.3808 45.9528Z" fill="#00E7BF"/>
<path d="M75.2065 46.8374L76.0803 47.7716H77.7594V45.2188H75.2065V46.8374Z" fill="#00E7BF"/>
<path d="M81.1378 45.2188H78.585V47.7716H81.1378V45.2188Z" fill="#00E7BF"/>
<path d="M84.5148 45.2188H81.9619V47.7716H84.5148V45.2188Z" fill="#00E7BF"/>
<path d="M77.7598 49.572V48.6113H76.8628L77.7598 49.572Z" fill="#00E7BF"/>
<path d="M81.1378 48.6113H78.585V51.1642H81.1378V48.6113Z" fill="#00E7BF"/>
<path d="M84.5148 48.6113H81.9619V51.1642H84.5148V48.6113Z" fill="#00E7BF"/>
<path d="M16.9528 52.0703H14.3999V54.6232H16.9528V52.0703Z" fill="#00E7BF"/>
<path d="M20.3312 52.0703H17.7783V54.6232H20.3312V52.0703Z" fill="#00E7BF"/>
<path d="M23.7101 52.0703H21.1572V54.6232H23.7101V52.0703Z" fill="#00E7BF"/>
<path d="M27.0885 52.0703H24.5356V54.6232H27.0885V52.0703Z" fill="#00E7BF"/>
<path d="M30.4655 52.0703H27.9126V54.6232H30.4655V52.0703Z" fill="#00E7BF"/>
<path d="M33.4187 52.0703H31.291V54.6232H33.4187V52.0703Z" fill="#00E7BF"/>
<path d="M16.9528 55.4609H14.3999V58.0138H16.9528V55.4609Z" fill="#00E7BF"/>
<path d="M20.3312 55.4609H17.7783V58.0138H20.3312V55.4609Z" fill="#00E7BF"/>
<path d="M23.7101 55.4609H21.1572V58.0138H23.7101V55.4609Z" fill="#00E7BF"/>
<path d="M27.0885 55.4609H24.5356V58.0138H27.0885V55.4609Z" fill="#00E7BF"/>
<path d="M30.4655 55.4609H27.9126V58.0138H30.4655V55.4609Z" fill="#00E7BF"/>
<path d="M33.4187 55.4609H31.291V58.0138H33.4187V55.4609Z" fill="#00E7BF"/>
<path d="M16.9528 58.8535H14.3999V61.4064H16.9528V58.8535Z" fill="#00E7BF"/>
<path d="M20.3312 58.8535H17.7783V61.4064H20.3312V58.8535Z" fill="#00E7BF"/>
<path d="M23.7101 58.8535H21.1572V61.4064H23.7101V58.8535Z" fill="#00E7BF"/>
<path d="M27.0885 58.8535H24.5356V61.4064H27.0885V58.8535Z" fill="#00E7BF"/>
<path d="M30.4655 58.8535H27.9126V61.4064H30.4655V58.8535Z" fill="#00E7BF"/>
<path d="M33.4201 58.9296V58.8535H31.2925V61.4064H33.8454V59.8328L33.7259 59.7055C33.5303 59.496 33.4201 59.2182 33.4201 58.9311V58.9296Z" fill="#00E7BF"/>
<path d="M34.6694 60.7148V61.4054H35.315L34.6694 60.7148Z" fill="#00E7BF"/>
<path d="M81.1378 52.0703H78.585V54.6232H81.1378V52.0703Z" fill="#00E7BF"/>
<path d="M84.5148 52.0703H81.9619V54.6232H84.5148V52.0703Z" fill="#00E7BF"/>
<path d="M87.8937 52.0703H85.3408V54.6232H87.8937V52.0703Z" fill="#00E7BF"/>
<path d="M91.2721 52.0703H88.7192V54.6232H91.2721V52.0703Z" fill="#00E7BF"/>
<path d="M94.6491 52.0703H92.0962V54.6232H94.6491V52.0703Z" fill="#00E7BF"/>
<path d="M98.0275 52.0703H95.4746V54.6232H98.0275V52.0703Z" fill="#00E7BF"/>
<path d="M101.406 52.0703H98.853V54.6232H101.406V52.0703Z" fill="#00E7BF"/>
<path d="M104.784 52.0703H102.231V54.6232H104.784V52.0703Z" fill="#00E7BF"/>
<path d="M81.1378 55.4609H78.585V56.3967H81.1378V55.4609Z" fill="#00E7BF"/>
<path d="M81.9619 56.7661C82.2878 57.0516 82.7332 57.4877 83.2484 58.0138H84.5148V55.4609H81.9619V56.7661Z" fill="#00E7BF"/>
<path d="M87.8937 55.4609H85.3408V58.0138H87.8937V55.4609Z" fill="#00E7BF"/>
<path d="M91.2721 55.4609H88.7192V58.0138H91.2721V55.4609Z" fill="#00E7BF"/>
<path d="M94.6491 55.4609H92.0962V58.0138H94.6491V55.4609Z" fill="#00E7BF"/>
<path d="M98.0275 55.4609H95.4746V58.0138H98.0275V55.4609Z" fill="#00E7BF"/>
<path d="M101.406 55.4609H98.853V58.0138H101.406V55.4609Z" fill="#00E7BF"/>
<path d="M104.784 55.4609H102.231V58.0138H104.784V55.4609Z" fill="#00E7BF"/>
<path d="M84.5148 59.3342V58.8516H84.0586C84.2076 59.0083 84.3612 59.1697 84.5148 59.3342Z" fill="#00E7BF"/>
<path d="M85.3408 60.2176C85.7071 60.6118 86.0749 61.0122 86.4365 61.4064H87.8937V58.8535H85.3408V60.2176Z" fill="#00E7BF"/>
<path d="M91.2721 58.8535H88.7192V61.4064H91.2721V58.8535Z" fill="#00E7BF"/>
<path d="M94.6491 58.8535H92.0962V61.4064H94.6491V58.8535Z" fill="#00E7BF"/>
<path d="M98.0275 58.8535H95.4746V61.4064H98.0275V58.8535Z" fill="#00E7BF"/>
<path d="M101.406 58.8535H98.853V61.4064H101.406V58.8535Z" fill="#00E7BF"/>
<path d="M104.784 58.8535H102.231V61.4064H104.784V58.8535Z" fill="#00E7BF"/>
<path d="M27.0885 62.3125H24.5356V64.8654H27.0885V62.3125Z" fill="#00E7BF"/>
<path d="M30.4655 62.3125H27.9126V64.8654H30.4655V62.3125Z" fill="#00E7BF"/>
<path d="M33.8439 62.3125H31.291V64.8654H33.8439V62.3125Z" fill="#00E7BF"/>
<path d="M34.6694 62.3125V64.8654H37.2223V63.4485L36.1608 62.3125H34.6694Z" fill="#00E7BF"/>
<path d="M38.0479 64.332V64.8643H38.5445L38.0479 64.332Z" fill="#00E7BF"/>
<path d="M27.0885 65.7031H24.5356V68.256H27.0885V65.7031Z" fill="#00E7BF"/>
<path d="M30.4655 65.7031H27.9126V68.256H30.4655V65.7031Z" fill="#00E7BF"/>
<path d="M33.8439 65.7031H31.291V68.256H33.8439V65.7031Z" fill="#00E7BF"/>
<path d="M37.2223 65.7031H34.6694V68.256H37.2223V65.7031Z" fill="#00E7BF"/>
<path d="M40.6007 65.7031H38.0479V68.256H40.6007V65.7031Z" fill="#00E7BF"/>
<path d="M43.9777 65.7031H41.4248V68.256H43.9777V65.7031Z" fill="#00E7BF"/>
<path d="M47.3561 65.7031H44.8032V68.256H47.3561V65.7031Z" fill="#00E7BF"/>
<path d="M50.7345 65.7031H48.1816V68.256H50.7345V65.7031Z" fill="#00E7BF"/>
<path d="M54.1134 65.7031H51.5605V68.256H54.1134V65.7031Z" fill="#00E7BF"/>
<path d="M57.4904 65.7031H54.9375V68.256H57.4904V65.7031Z" fill="#00E7BF"/>
<path d="M60.8688 65.7031H58.3159V68.256H60.8688V65.7031Z" fill="#00E7BF"/>
<path d="M27.0885 69.0957H24.5356V71.6486H27.0885V69.0957Z" fill="#00E7BF"/>
<path d="M30.4655 69.0957H27.9126V71.6486H30.4655V69.0957Z" fill="#00E7BF"/>
<path d="M33.8439 69.0957H31.291V71.6486H33.8439V69.0957Z" fill="#00E7BF"/>
<path d="M37.2223 69.0957H34.6694V71.6486H37.2223V69.0957Z" fill="#00E7BF"/>
<path d="M40.6007 69.0957H38.0479V71.6486H40.6007V69.0957Z" fill="#00E7BF"/>
<path d="M43.9777 69.0957H41.4248V71.6486H43.9777V69.0957Z" fill="#00E7BF"/>
<path d="M47.3561 69.0957H44.8032V71.6486H47.3561V69.0957Z" fill="#00E7BF"/>
<path d="M50.7345 69.0957H48.1816V71.6486H50.7345V69.0957Z" fill="#00E7BF"/>
<path d="M54.1134 69.0957H51.5605V71.6486H54.1134V69.0957Z" fill="#00E7BF"/>
<path d="M57.4904 69.0957H54.9375V71.6486H57.4904V69.0957Z" fill="#00E7BF"/>
<path d="M60.8688 69.0957H58.3159V71.6486H60.8688V69.0957Z" fill="#00E7BF"/>
<path d="M64.2472 65.7031H61.6943V68.256H64.2472V65.7031Z" fill="#00E7BF"/>
<path d="M67.6256 65.7031H65.0728V68.256H67.6256V65.7031Z" fill="#00E7BF"/>
<path d="M71.0026 65.7031H68.4497V68.256H71.0026V65.7031Z" fill="#00E7BF"/>
<path d="M74.381 65.7031H71.8281V68.256H74.381V65.7031Z" fill="#00E7BF"/>
<path d="M77.7594 65.7031H75.2065V68.256H77.7594V65.7031Z" fill="#00E7BF"/>
<path d="M81.1378 65.7031H78.585V68.256H81.1378V65.7031Z" fill="#00E7BF"/>
<path d="M84.5148 65.7031H81.9619V68.256H84.5148V65.7031Z" fill="#00E7BF"/>
<path d="M64.2472 69.0957H61.6943V71.6486H64.2472V69.0957Z" fill="#00E7BF"/>
<path d="M67.6256 69.0957H65.0728V71.6486H67.6256V69.0957Z" fill="#00E7BF"/>
<path d="M71.0026 69.0957H68.4497V71.6486H71.0026V69.0957Z" fill="#00E7BF"/>
<path d="M74.381 69.0957H71.8281V71.6486H74.381V69.0957Z" fill="#00E7BF"/>
<path d="M77.7594 69.0957H75.2065V71.6486H77.7594V69.0957Z" fill="#00E7BF"/>
<path d="M81.1378 69.0957H78.585V71.6486H81.1378V69.0957Z" fill="#00E7BF"/>
<path d="M84.5148 69.0957H81.9619V71.6486H84.5148V69.0957Z" fill="#00E7BF"/>
<path d="M16.9528 72.5547H14.3999V75.1076H16.9528V72.5547Z" fill="#00E7BF"/>
<path d="M20.3312 72.5547H17.7783V75.1076H20.3312V72.5547Z" fill="#00E7BF"/>
<path d="M23.7101 72.5547H21.1572V75.1076H23.7101V72.5547Z" fill="#00E7BF"/>
<path d="M27.0885 72.5547H24.5356V75.1076H27.0885V72.5547Z" fill="#00E7BF"/>
<path d="M30.4655 72.5547H27.9126V75.1076H30.4655V72.5547Z" fill="#00E7BF"/>
<path d="M33.8439 72.5547H31.291V75.1076H33.8439V72.5547Z" fill="#00E7BF"/>
<path d="M37.2223 72.5547H34.6694V75.1076H37.2223V72.5547Z" fill="#00E7BF"/>
<path d="M40.6007 72.5547H38.0479V75.1076H40.6007V72.5547Z" fill="#00E7BF"/>
<path d="M43.9777 72.5547H41.4248V75.1076H43.9777V72.5547Z" fill="#00E7BF"/>
<path d="M47.3561 72.5547H44.8032V75.1076H47.3561V72.5547Z" fill="#00E7BF"/>
<path d="M50.7345 72.5547H48.1816V75.1076H50.7345V72.5547Z" fill="#00E7BF"/>
<path d="M54.1134 72.5547H51.5605V75.1076H54.1134V72.5547Z" fill="#00E7BF"/>
<path d="M57.4904 72.5547H54.9375V75.1076H57.4904V72.5547Z" fill="#00E7BF"/>
<path d="M60.8688 72.5547H58.3159V75.1076H60.8688V72.5547Z" fill="#00E7BF"/>
<path d="M16.9528 75.9453H14.3999V78.4982H16.9528V75.9453Z" fill="#00E7BF"/>
<path d="M20.3312 75.9453H17.7783V78.4982H20.3312V75.9453Z" fill="#00E7BF"/>
<path d="M23.7101 75.9453H21.1572V78.4982H23.7101V75.9453Z" fill="#00E7BF"/>
<path d="M27.0885 75.9453H24.5356V78.4982H27.0885V75.9453Z" fill="#00E7BF"/>
<path d="M30.4655 75.9453H27.9126V78.4982H30.4655V75.9453Z" fill="#00E7BF"/>
<path d="M33.8439 75.9453H31.291V78.4982H33.8439V75.9453Z" fill="#00E7BF"/>
<path d="M37.2223 75.9453H34.6694V78.4982H37.2223V75.9453Z" fill="#00E7BF"/>
<path d="M40.6007 75.9453H38.0479V78.4982H40.6007V75.9453Z" fill="#00E7BF"/>
<path d="M43.9777 75.9453H41.4248V78.4982H43.9777V75.9453Z" fill="#00E7BF"/>
<path d="M47.3561 75.9453H44.8032V78.4982H47.3561V75.9453Z" fill="#00E7BF"/>
<path d="M50.7345 75.9453H48.1816V78.4982H50.7345V75.9453Z" fill="#00E7BF"/>
<path d="M54.1134 75.9453H51.5605V78.4982H54.1134V75.9453Z" fill="#00E7BF"/>
<path d="M57.4904 75.9453H54.9375V78.4982H57.4904V75.9453Z" fill="#00E7BF"/>
<path d="M60.8688 75.9453H58.3159V78.4982H60.8688V75.9453Z" fill="#00E7BF"/>
<path d="M16.9528 79.3379H14.3999V81.8908H16.9528V79.3379Z" fill="#00E7BF"/>
<path d="M20.3312 79.3379H17.7783V81.8908H20.3312V79.3379Z" fill="#00E7BF"/>
<path d="M23.7101 79.3379H21.1572V81.8908H23.7101V79.3379Z" fill="#00E7BF"/>
<path d="M27.0885 79.3379H24.5356V81.8908H27.0885V79.3379Z" fill="#00E7BF"/>
<path d="M30.4655 79.3379H27.9126V81.8908H30.4655V79.3379Z" fill="#00E7BF"/>
<path d="M33.8439 79.3379H31.291V81.8908H33.8439V79.3379Z" fill="#00E7BF"/>
<path d="M37.2223 79.3379H34.6694V81.8908H37.2223V79.3379Z" fill="#00E7BF"/>
<path d="M40.6007 79.3379H38.0479V81.8908H40.6007V79.3379Z" fill="#00E7BF"/>
<path d="M43.9777 79.3379H41.4248V81.8908H43.9777V79.3379Z" fill="#00E7BF"/>
<path d="M47.3561 79.3379H44.8032V81.8908H47.3561V79.3379Z" fill="#00E7BF"/>
<path d="M50.7345 79.3379H48.1816V81.8908H50.7345V79.3379Z" fill="#00E7BF"/>
<path d="M54.1134 79.3379H51.5605V81.8908H54.1134V79.3379Z" fill="#00E7BF"/>
<path d="M57.4904 79.3379H54.9375V81.8908H57.4904V79.3379Z" fill="#00E7BF"/>
<path d="M60.8688 79.3379H58.3159V81.8908H60.8688V79.3379Z" fill="#00E7BF"/>
<path d="M64.2472 72.5547H61.6943V75.1076H64.2472V72.5547Z" fill="#00E7BF"/>
<path d="M67.6256 72.5547H65.0728V75.1076H67.6256V72.5547Z" fill="#00E7BF"/>
<path d="M71.0026 72.5547H68.4497V75.1076H71.0026V72.5547Z" fill="#00E7BF"/>
<path d="M74.381 72.5547H71.8281V75.1076H74.381V72.5547Z" fill="#00E7BF"/>
<path d="M77.7594 72.5547H75.2065V75.1076H77.7594V72.5547Z" fill="#00E7BF"/>
<path d="M81.1378 72.5547H78.585V75.1076H81.1378V72.5547Z" fill="#00E7BF"/>
<path d="M84.5148 72.5547H81.9619V75.1076H84.5148V72.5547Z" fill="#00E7BF"/>
<path d="M87.8937 72.5547H85.3408V75.1076H87.8937V72.5547Z" fill="#00E7BF"/>
<path d="M91.2721 72.5547H88.7192V75.1076H91.2721V72.5547Z" fill="#00E7BF"/>
<path d="M94.6491 72.5547H92.0962V75.1076H94.6491V72.5547Z" fill="#00E7BF"/>
<path d="M98.0275 72.5547H95.4746V75.1076H98.0275V72.5547Z" fill="#00E7BF"/>
<path d="M101.406 72.5547H98.853V75.1076H101.406V72.5547Z" fill="#00E7BF"/>
<path d="M104.784 72.5547H102.231V75.1076H104.784V72.5547Z" fill="#00E7BF"/>
<path d="M64.2472 75.9453H61.6943V78.4982H64.2472V75.9453Z" fill="#00E7BF"/>
<path d="M67.6256 75.9453H65.0728V78.4982H67.6256V75.9453Z" fill="#00E7BF"/>
<path d="M71.0026 75.9453H68.4497V78.4982H71.0026V75.9453Z" fill="#00E7BF"/>
<path d="M74.381 75.9453H71.8281V78.4982H74.381V75.9453Z" fill="#00E7BF"/>
<path d="M77.7594 75.9453H75.2065V78.4982H77.7594V75.9453Z" fill="#00E7BF"/>
<path d="M81.1378 75.9453H78.585V78.4982H81.1378V75.9453Z" fill="#00E7BF"/>
<path d="M84.5148 75.9453H81.9619V78.4982H84.5148V75.9453Z" fill="#00E7BF"/>
<path d="M87.8937 75.9453H85.3408V78.4982H87.8937V75.9453Z" fill="#00E7BF"/>
<path d="M91.2721 75.9453H88.7192V78.4982H91.2721V75.9453Z" fill="#00E7BF"/>
<path d="M94.6491 75.9453H92.0962V78.4982H94.6491V75.9453Z" fill="#00E7BF"/>
<path d="M98.0275 75.9453H95.4746V78.4982H98.0275V75.9453Z" fill="#00E7BF"/>
<path d="M101.406 75.9453H98.853V78.4982H101.406V75.9453Z" fill="#00E7BF"/>
<path d="M104.784 75.9453H102.231V78.4982H104.784V75.9453Z" fill="#00E7BF"/>
<path d="M64.2472 79.3379H61.6943V81.8908H64.2472V79.3379Z" fill="#00E7BF"/>
<path d="M67.6256 79.3379H65.0728V81.8908H67.6256V79.3379Z" fill="#00E7BF"/>
<path d="M71.0026 79.3379H68.4497V81.8908H71.0026V79.3379Z" fill="#00E7BF"/>
<path d="M74.381 79.3379H71.8281V81.8908H74.381V79.3379Z" fill="#00E7BF"/>
<path d="M77.7594 79.3379H75.2065V81.8908H77.7594V79.3379Z" fill="#00E7BF"/>
<path d="M81.1378 79.3379H78.585V81.8908H81.1378V79.3379Z" fill="#00E7BF"/>
<path d="M84.5148 79.3379H81.9619V81.8908H84.5148V79.3379Z" fill="#00E7BF"/>
<path d="M87.8937 79.3379H85.3408V81.8908H87.8937V79.3379Z" fill="#00E7BF"/>
<path d="M91.2721 79.3379H88.7192V81.8908H91.2721V79.3379Z" fill="#00E7BF"/>
<path d="M94.6491 79.3379H92.0962V81.8908H94.6491V79.3379Z" fill="#00E7BF"/>
<path d="M98.0275 79.3379H95.4746V81.8908H98.0275V79.3379Z" fill="#00E7BF"/>
<path d="M101.406 79.3379H98.853V81.8908H101.406V79.3379Z" fill="#00E7BF"/>
<path d="M104.784 79.3379H102.231V81.8908H104.784V79.3379Z" fill="#00E7BF"/>
<path d="M27.0885 82.7969H24.5356V85.3498H27.0885V82.7969Z" fill="#00E7BF"/>
<path d="M30.4655 82.7969H27.9126V85.3498H30.4655V82.7969Z" fill="#00E7BF"/>
<path d="M33.8439 82.7969H31.291V85.3498H33.8439V82.7969Z" fill="#00E7BF"/>
<path d="M37.2223 82.7969H34.6694V85.3498H37.2223V82.7969Z" fill="#00E7BF"/>
<path d="M40.6007 82.7969H38.0479V85.3498H40.6007V82.7969Z" fill="#00E7BF"/>
<path d="M43.9777 82.7969H41.4248V85.3498H43.9777V82.7969Z" fill="#00E7BF"/>
<path d="M47.3561 82.7969H44.8032V85.3498H47.3561V82.7969Z" fill="#00E7BF"/>
<path d="M50.7345 82.7969H48.1816V85.3498H50.7345V82.7969Z" fill="#00E7BF"/>
<path d="M54.1134 82.7969H51.5605V85.3498H54.1134V82.7969Z" fill="#00E7BF"/>
<path d="M57.4904 82.7969H54.9375V85.3498H57.4904V82.7969Z" fill="#00E7BF"/>
<path d="M60.8688 82.7969H58.3159V85.3498H60.8688V82.7969Z" fill="#00E7BF"/>
<path d="M27.0885 86.1875H24.5356V88.7404H27.0885V86.1875Z" fill="#00E7BF"/>
<path d="M30.4655 86.1875H27.9126V88.7404H30.4655V86.1875Z" fill="#00E7BF"/>
<path d="M33.8439 86.1875H31.291V88.7404H33.8439V86.1875Z" fill="#00E7BF"/>
<path d="M37.2223 86.1875H34.6694V88.7404H37.2223V86.1875Z" fill="#00E7BF"/>
<path d="M40.6007 86.1875H38.0479V88.7404H40.6007V86.1875Z" fill="#00E7BF"/>
<path d="M43.9777 86.1875H41.4248V88.7404H43.9777V86.1875Z" fill="#00E7BF"/>
<path d="M47.3561 86.1875H44.8032V88.7404H47.3561V86.1875Z" fill="#00E7BF"/>
<path d="M50.7345 86.1875H48.1816V88.7404H50.7345V86.1875Z" fill="#00E7BF"/>
<path d="M54.1134 86.1875H51.5605V88.7404H54.1134V86.1875Z" fill="#00E7BF"/>
<path d="M57.4904 86.1875H54.9375V88.7404H57.4904V86.1875Z" fill="#00E7BF"/>
<path d="M60.8688 86.1875H58.3159V88.7404H60.8688V86.1875Z" fill="#00E7BF"/>
<path d="M27.0885 89.5801H24.5356V92.133H27.0885V89.5801Z" fill="#00E7BF"/>
<path d="M30.4655 89.5801H27.9126V92.133H30.4655V89.5801Z" fill="#00E7BF"/>
<path d="M33.8439 89.5801H31.291V92.133H33.8439V89.5801Z" fill="#00E7BF"/>
<path d="M37.2223 89.5801H34.6694V92.133H37.2223V89.5801Z" fill="#00E7BF"/>
<path d="M40.6007 89.5801H38.0479V92.133H40.6007V89.5801Z" fill="#00E7BF"/>
<path d="M43.9777 89.5801H41.4248V92.133H43.9777V89.5801Z" fill="#00E7BF"/>
<path d="M47.3561 89.5801H44.8032V92.133H47.3561V89.5801Z" fill="#00E7BF"/>
<path d="M50.7345 89.5801H48.1816V92.133H50.7345V89.5801Z" fill="#00E7BF"/>
<path d="M54.1134 89.5801H51.5605V92.133H54.1134V89.5801Z" fill="#00E7BF"/>
<path d="M57.4904 89.5801H54.9375V92.133H57.4904V89.5801Z" fill="#00E7BF"/>
<path d="M60.8688 89.5801H58.3159V92.133H60.8688V89.5801Z" fill="#00E7BF"/>
<path d="M64.2472 82.7969H61.6943V85.3498H64.2472V82.7969Z" fill="#00E7BF"/>
<path d="M67.6256 82.7969H65.0728V85.3498H67.6256V82.7969Z" fill="#00E7BF"/>
<path d="M71.0026 82.7969H68.4497V85.3498H71.0026V82.7969Z" fill="#00E7BF"/>
<path d="M74.381 82.7969H71.8281V85.3498H74.381V82.7969Z" fill="#00E7BF"/>
<path d="M77.7594 82.7969H75.2065V85.3498H77.7594V82.7969Z" fill="#00E7BF"/>
<path d="M81.1378 82.7969H78.585V85.3498H81.1378V82.7969Z" fill="#00E7BF"/>
<path d="M84.5148 82.7969H81.9619V85.3498H84.5148V82.7969Z" fill="#00E7BF"/>
<path d="M64.2472 86.1875H61.6943V88.7404H64.2472V86.1875Z" fill="#00E7BF"/>
<path d="M67.6256 86.1875H65.0728V88.7404H67.6256V86.1875Z" fill="#00E7BF"/>
<path d="M71.0026 86.1875H68.4497V88.7404H71.0026V86.1875Z" fill="#00E7BF"/>
<path d="M74.381 86.1875H71.8281V88.7404H74.381V86.1875Z" fill="#00E7BF"/>
<path d="M77.7594 86.1875H75.2065V88.7404H77.7594V86.1875Z" fill="#00E7BF"/>
<path d="M81.1378 86.1875H78.585V88.7404H81.1378V86.1875Z" fill="#00E7BF"/>
<path d="M84.5148 86.1875H81.9619V88.7404H84.5148V86.1875Z" fill="#00E7BF"/>
<path d="M64.2472 89.5801H61.6943V92.133H64.2472V89.5801Z" fill="#00E7BF"/>
<path d="M67.6256 89.5801H65.0728V92.133H67.6256V89.5801Z" fill="#00E7BF"/>
<path d="M71.0026 89.5801H68.4497V92.133H71.0026V89.5801Z" fill="#00E7BF"/>
<path d="M74.381 89.5801H71.8281V92.133H74.381V89.5801Z" fill="#00E7BF"/>
<path d="M77.7594 89.5801H75.2065V92.133H77.7594V89.5801Z" fill="#00E7BF"/>
<path d="M81.1378 89.5801H78.585V92.133H81.1378V89.5801Z" fill="#00E7BF"/>
<path d="M84.5148 89.5801H81.9619V92.133H84.5148V89.5801Z" fill="#00E7BF"/>
<path d="M37.2223 93.0391H34.6694V95.5919H37.2223V93.0391Z" fill="#00E7BF"/>
<path d="M40.6007 93.0391H38.0479V95.5919H40.6007V93.0391Z" fill="#00E7BF"/>
<path d="M43.9777 93.0391H41.4248V95.5919H43.9777V93.0391Z" fill="#00E7BF"/>
<path d="M57.4904 93.0391H54.9375V95.5919H57.4904V93.0391Z" fill="#00E7BF"/>
<path d="M60.8688 93.0391H58.3159V95.5919H60.8688V93.0391Z" fill="#00E7BF"/>
<path d="M37.2223 96.4316H34.6694V98.9845H37.2223V96.4316Z" fill="#00E7BF"/>
<path d="M40.6007 96.4316H38.0479V98.9845H40.6007V96.4316Z" fill="#00E7BF"/>
<path d="M43.9777 96.4316H41.4248V98.9845H43.9777V96.4316Z" fill="#00E7BF"/>
<path d="M57.4904 96.4316H54.9375V98.9845H57.4904V96.4316Z" fill="#00E7BF"/>
<path d="M60.8688 96.4316H58.3159V98.9845H60.8688V96.4316Z" fill="#00E7BF"/>
<path d="M37.2223 99.8242H34.6694V102.377H37.2223V99.8242Z" fill="#00E7BF"/>
<path d="M40.6007 99.8242H38.0479V102.377H40.6007V99.8242Z" fill="#00E7BF"/>
<path d="M43.9777 99.8242H41.4248V102.377H43.9777V99.8242Z" fill="#00E7BF"/>
<path d="M57.4904 99.8242H54.9375V102.377H57.4904V99.8242Z" fill="#00E7BF"/>
<path d="M60.8688 99.8242H58.3159V102.377H60.8688V99.8242Z" fill="#00E7BF"/>
<path d="M64.2472 93.0391H61.6943V95.5919H64.2472V93.0391Z" fill="#00E7BF"/>
<path d="M77.7594 93.0391H75.2065V95.5919H77.7594V93.0391Z" fill="#00E7BF"/>
<path d="M81.1378 93.0391H78.585V95.5919H81.1378V93.0391Z" fill="#00E7BF"/>
<path d="M84.5148 93.0391H81.9619V95.5919H84.5148V93.0391Z" fill="#00E7BF"/>
<path d="M64.2472 96.4316H61.6943V98.9845H64.2472V96.4316Z" fill="#00E7BF"/>
<path d="M77.7594 96.4316H75.2065V98.9845H77.7594V96.4316Z" fill="#00E7BF"/>
<path d="M81.1378 96.4316H78.585V98.9845H81.1378V96.4316Z" fill="#00E7BF"/>
<path d="M84.5148 96.4316H81.9619V98.9845H84.5148V96.4316Z" fill="#00E7BF"/>
<path d="M64.2472 99.8242H61.6943V102.377H64.2472V99.8242Z" fill="#00E7BF"/>
<path d="M77.7594 99.8242H75.2065V102.377H77.7594V99.8242Z" fill="#00E7BF"/>
<path d="M81.1378 99.8242H78.585V102.377H81.1378V99.8242Z" fill="#00E7BF"/>
<path d="M84.5148 99.8242H81.9619V102.377H84.5148V99.8242Z" fill="#00E7BF"/>
<path d="M87.8937 21.3418H85.3408V23.8947H87.8937V21.3418Z" fill="#00E7BF"/>
<path d="M87.8937 24.7324H85.3408V27.2853H87.8937V24.7324Z" fill="#00E7BF"/>
<path d="M87.8937 28.125H85.3408V30.6779H87.8937V28.125Z" fill="#00E7BF"/>
<path d="M87.8937 41.8281H85.3408V44.381H87.8937V41.8281Z" fill="#00E7BF"/>
<path d="M87.8937 45.2188H85.3408V47.7716H87.8937V45.2188Z" fill="#00E7BF"/>
<path d="M87.8937 48.6113H85.3408V51.1642H87.8937V48.6113Z" fill="#00E7BF"/>
<path d="M87.8932 63.0078V62.3125H87.2632C87.4804 62.5515 87.6915 62.7843 87.8932 63.0078Z" fill="#00E7BF"/>
<path d="M87.8937 65.7031H85.3408V68.256H87.8937V65.7031Z" fill="#00E7BF"/>
<path d="M87.8937 69.0957H85.3408V71.6486H87.8937V69.0957Z" fill="#00E7BF"/>
<path d="M87.8937 82.7969H85.3408V85.3498H87.8937V82.7969Z" fill="#00E7BF"/>
<path d="M87.8937 86.1875H85.3408V88.7404H87.8937V86.1875Z" fill="#00E7BF"/>
<path d="M87.8937 89.5801H85.3408V92.133H87.8937V89.5801Z" fill="#00E7BF"/>
<path d="M91.2721 21.3418H88.7192V23.8947H91.2721V21.3418Z" fill="#00E7BF"/>
<path d="M91.2721 24.7324H88.7192V27.2853H91.2721V24.7324Z" fill="#00E7BF"/>
<path d="M91.2721 28.125H88.7192V30.6779H91.2721V28.125Z" fill="#00E7BF"/>
<path d="M91.2721 41.8281H88.7192V44.381H91.2721V41.8281Z" fill="#00E7BF"/>
<path d="M91.2721 45.2188H88.7192V47.7716H91.2721V45.2188Z" fill="#00E7BF"/>
<path d="M91.2721 48.6113H88.7192V51.1642H91.2721V48.6113Z" fill="#00E7BF"/>
<path d="M88.7192 63.9234C89.0607 64.3036 89.3478 64.6248 89.5619 64.8654H91.2721V62.3125H88.7192V63.9234Z" fill="#00E7BF"/>
<path d="M91.2721 65.7031H88.7192V68.256H91.2721V65.7031Z" fill="#00E7BF"/>
<path d="M91.2721 69.0957H88.7192V71.6486H91.2721V69.0957Z" fill="#00E7BF"/>
<path d="M91.2721 82.7969H88.7192V85.3498H91.2721V82.7969Z" fill="#00E7BF"/>
<path d="M91.2721 86.1875H88.7192V88.7404H91.2721V86.1875Z" fill="#00E7BF"/>
<path d="M91.2721 89.5801H88.7192V92.133H91.2721V89.5801Z" fill="#00E7BF"/>
<path d="M94.6491 21.3418H92.0962V23.8947H94.6491V21.3418Z" fill="#00E7BF"/>
<path d="M94.6491 24.7324H92.0962V27.2853H94.6491V24.7324Z" fill="#00E7BF"/>
<path d="M94.6491 28.125H92.0962V30.6779H94.6491V28.125Z" fill="#00E7BF"/>
<path d="M94.6491 41.8281H92.0962V44.381H94.6491V41.8281Z" fill="#00E7BF"/>
<path d="M94.6491 45.2188H92.0962V47.7716H94.6491V45.2188Z" fill="#00E7BF"/>
<path d="M94.6491 48.6113H92.0962V51.1642H94.6491V48.6113Z" fill="#00E7BF"/>
<path d="M94.6491 62.3125H92.0962V64.8654H94.6491V62.3125Z" fill="#00E7BF"/>
<path d="M94.6491 65.7031H92.0962V68.256H94.6491V65.7031Z" fill="#00E7BF"/>
<path d="M94.6491 69.0957H92.0962V71.6486H94.6491V69.0957Z" fill="#00E7BF"/>
<path d="M94.6491 82.7969H92.0962V85.3498H94.6491V82.7969Z" fill="#00E7BF"/>
<path d="M94.6491 86.1875H92.0962V88.7404H94.6491V86.1875Z" fill="#00E7BF"/>
<path d="M94.6491 89.5801H92.0962V92.133H94.6491V89.5801Z" fill="#00E7BF"/>
<path d="M69.2891 55.2613V54.58C69.2891 54.2789 69.1696 53.9903 68.957 53.7777L68.9337 53.7559C68.8902 53.7125 68.8437 53.6752 68.794 53.6395C68.6016 53.5014 68.3704 53.4238 68.1314 53.4238H43.841C43.526 53.4238 43.2264 53.5542 43.0123 53.7839C42.8152 53.9934 42.7065 54.2712 42.7065 54.5583V55.2628C42.7065 55.5499 42.8152 55.8262 43.0123 56.0372C43.1209 56.1536 43.2513 56.2436 43.394 56.3057C43.5337 56.3662 43.6858 56.3988 43.8425 56.3988H68.1562C68.7831 56.3988 69.2906 55.8913 69.2906 55.2644L69.2891 55.2613Z" fill="#00E7BF"/>
</svg>
